<svg width="67" height="63" viewBox="0 0 67 63" fill="none" xmlns="http://www.w3.org/2000/svg">
<rect width="60" height="60" rx="30" fill="#79AFFE"/>
<path d="M34.1628 19.8729V17.0443C34.2179 17.0694 34.268 17.1044 34.3104 17.1476L37.1405 19.9777C37.1837 20.0202 37.2187 20.0702 37.2439 20.1253H34.4152C34.3484 20.1251 34.2843 20.0985 34.237 20.0512C34.1897 20.0039 34.1631 19.9398 34.1628 19.8729ZM22.8409 22.4963C22.8409 21.9894 22.9912 21.4939 23.2728 21.0724C23.5544 20.651 23.9547 20.3225 24.423 20.1285C24.8913 19.9345 25.4066 19.8837 25.9038 19.9826C26.401 20.0815 26.8576 20.3256 27.2161 20.684C27.5745 21.0424 27.8186 21.4991 27.9175 21.9963C28.0164 22.4934 27.9656 23.0088 27.7717 23.4771C27.5777 23.9454 27.2492 24.3457 26.8277 24.6273C26.4062 24.9089 25.9107 25.0592 25.4038 25.0592C25.0672 25.0593 24.7339 24.993 24.4229 24.8643C24.112 24.7355 23.8294 24.5467 23.5914 24.3087C23.3534 24.0707 23.1646 23.7882 23.0358 23.4772C22.907 23.1662 22.8408 22.8329 22.8408 22.4963H22.8409ZM23.8685 22.8639L24.5918 23.5873C24.6307 23.6264 24.6768 23.6573 24.7277 23.6783C24.7786 23.6994 24.8331 23.7102 24.8881 23.71C24.9432 23.7099 24.9977 23.6988 25.0484 23.6775C25.0992 23.6562 25.1452 23.625 25.1838 23.5858L26.9229 22.0062C26.9633 21.9694 26.9961 21.9251 27.0194 21.8757C27.0427 21.8263 27.056 21.7727 27.0586 21.7182C27.0612 21.6636 27.0531 21.6091 27.0346 21.5577C27.0161 21.5063 26.9877 21.459 26.951 21.4186C26.9142 21.3782 26.8699 21.3454 26.8205 21.3221C26.7711 21.2988 26.7176 21.2855 26.663 21.2829C26.6084 21.2803 26.5539 21.2885 26.5025 21.3069C26.4511 21.3254 26.4038 21.3538 26.3634 21.3906L24.9004 22.7193L24.4577 22.2749C24.3789 22.2001 24.274 22.159 24.1654 22.1603C24.0568 22.1617 23.953 22.2055 23.8761 22.2823C23.7993 22.3592 23.7555 22.463 23.7541 22.5716C23.7527 22.6803 23.7938 22.7852 23.8687 22.8639H23.8685ZM42.6177 36.6707C42.6177 37.7247 42.3051 38.7551 41.7194 39.6315C41.1338 40.508 40.3014 41.191 39.3276 41.5944C38.3537 41.9977 37.2822 42.1032 36.2483 41.8976C35.2145 41.6919 34.2649 41.1843 33.5196 40.439C32.7743 39.6936 32.2667 38.744 32.0611 37.7102C31.8554 36.6763 31.961 35.6048 32.3644 34.6309C32.7677 33.6571 33.4508 32.8248 34.3272 32.2391C35.2037 31.6535 36.2341 31.341 37.2881 31.3409C37.9881 31.3408 38.6811 31.4786 39.3278 31.7464C39.9744 32.0142 40.562 32.4068 41.0569 32.9017C41.5518 33.3966 41.9444 33.9842 42.2122 34.6308C42.48 35.2775 42.6178 35.9706 42.6177 36.6705L42.6177 36.6707ZM40.2955 34.5197C40.222 34.4466 40.1349 34.3886 40.039 34.3491C39.9432 34.3097 39.8405 34.2895 39.7368 34.2898C39.6331 34.2901 39.5305 34.3108 39.4349 34.3507C39.3392 34.3907 39.2524 34.4491 39.1794 34.5227L36.5884 37.1402L35.3972 35.9486C35.3237 35.8752 35.2365 35.817 35.1405 35.7773C35.0446 35.7376 34.9417 35.7173 34.8379 35.7173C34.734 35.7174 34.6312 35.7379 34.5353 35.7777C34.4394 35.8175 34.3523 35.8758 34.2789 35.9493C34.2055 36.0228 34.1473 36.11 34.1076 36.2059C34.068 36.3019 34.0476 36.4048 34.0476 36.5086C34.0477 36.6124 34.0682 36.7153 34.108 36.8112C34.1478 36.9071 34.2061 36.9942 34.2796 37.0676L36.0305 38.8185C36.179 38.9667 36.3803 39.0499 36.59 39.0499C36.7998 39.0499 37.001 38.9667 37.1496 38.8185C38.2051 37.7629 39.2489 36.6956 40.2985 35.6341C40.4459 35.4859 40.5284 35.2852 40.5278 35.0761C40.5272 34.8671 40.4436 34.6669 40.2954 34.5195L40.2955 34.5197ZM34.1923 41.9987H18.5035C18.37 41.9986 18.242 41.9455 18.1477 41.8511C18.0533 41.7567 18.0002 41.6288 18 41.4953V17.5034C18.0002 17.3699 18.0533 17.242 18.1477 17.1476C18.242 17.0533 18.37 17.0002 18.5035 17H33.3301V19.8729C33.3301 20.0154 33.3582 20.1565 33.4127 20.2882C33.4672 20.4198 33.5472 20.5394 33.6479 20.6402C33.7487 20.7409 33.8683 20.8209 34 20.8754C34.1316 20.9299 34.2727 20.9579 34.4152 20.9579H37.2881V30.5068C36.5628 30.506 35.8431 30.6335 35.1622 30.8833C35.1983 30.821 35.2172 30.7501 35.2169 30.6781C35.217 30.5675 35.1733 30.4613 35.0952 30.383C35.0171 30.3046 34.9111 30.2605 34.8005 30.2603H20.4876C20.3778 30.2615 20.2729 30.306 20.1957 30.3841C20.1185 30.4622 20.0752 30.5675 20.0752 30.6773C20.0752 30.7872 20.1185 30.8925 20.1957 30.9706C20.2729 31.0487 20.3778 31.0932 20.4876 31.0944H34.6618C33.957 31.4264 33.3218 31.8894 32.7898 32.4586H20.4876C20.3778 32.4598 20.2729 32.5043 20.1957 32.5823C20.1185 32.6604 20.0752 32.7658 20.0752 32.8756C20.0752 32.9854 20.1185 33.0908 20.1957 33.1689C20.2729 33.2469 20.3778 33.2914 20.4876 33.2926H32.133C31.8536 33.7176 31.6284 34.1759 31.4627 34.6567H20.4876C20.3772 34.6567 20.2713 34.7006 20.1932 34.7787C20.1151 34.8568 20.0713 34.9627 20.0713 35.0731C20.0713 35.1835 20.1151 35.2894 20.1932 35.3675C20.2713 35.4456 20.3772 35.4894 20.4876 35.4894H31.2397C31.152 35.9386 31.1148 36.3961 31.129 36.8535H20.4876C20.377 36.8535 20.2709 36.8975 20.1927 36.9757C20.1145 37.0539 20.0705 37.16 20.0705 37.2706C20.0705 37.3812 20.1145 37.4873 20.1927 37.5655C20.2709 37.6437 20.377 37.6877 20.4876 37.6877H31.2101C31.2872 38.1562 31.419 38.614 31.6028 39.0518H20.4876C20.378 39.053 20.2733 39.0974 20.1962 39.1753C20.1192 39.2533 20.0759 39.3585 20.0759 39.4681C20.0759 39.5777 20.1192 39.6829 20.1962 39.7608C20.2733 39.8388 20.378 39.8832 20.4876 39.8844H32.0295C32.5645 40.7572 33.3076 41.4836 34.1923 41.9987ZM24.3497 27.6147C24.0368 27.6397 23.723 27.5798 23.4413 27.4413C23.1597 27.3028 22.9206 27.0909 22.7493 26.8278C22.6253 26.6374 22.4629 26.2846 22.2636 26.1856L21.3129 28.2289L22.8099 27.9676L23.5731 29.2815L24.3497 27.6147ZM29.4946 27.8288L28.7476 26.0927C28.6452 26.1312 28.5468 26.1796 28.4539 26.2373C28.3608 26.3215 28.132 26.7127 28.0567 26.8278C27.9071 27.0582 27.7051 27.2498 27.4673 27.3871C27.2294 27.5244 26.9624 27.6034 26.6881 27.6177L27.2034 28.8149L28.005 27.5233L29.4946 27.8288ZM21.1608 22.411C21.6452 23.3706 21.6096 23.1653 21.4812 24.2327C21.4562 24.4295 21.4964 24.6289 21.5956 24.8006C21.6948 24.9723 21.8475 25.1068 22.0304 25.1835C23.018 25.6057 22.8585 25.4728 23.4476 26.3719C23.5545 26.5388 23.7133 26.6659 23.8995 26.7337C24.0857 26.8015 24.289 26.8061 24.4781 26.7469C25.5071 26.4354 25.2989 26.4354 26.328 26.7469C26.5173 26.8062 26.7209 26.8017 26.9073 26.7339C27.0938 26.6661 27.2528 26.539 27.3599 26.3719C27.9475 25.4728 27.788 25.6057 28.7757 25.1835C28.9585 25.1068 29.1113 24.9723 29.2104 24.8006C29.3096 24.6289 29.3498 24.4295 29.3249 24.2327C29.1979 23.1651 29.161 23.3706 29.6467 22.411C29.7376 22.2347 29.7681 22.0335 29.7334 21.8382C29.6987 21.6429 29.6008 21.4645 29.4548 21.3303C28.6723 20.5951 28.7757 20.7752 28.5306 19.7285C28.4871 19.5351 28.3814 19.3614 28.2296 19.234C28.0779 19.1065 27.8885 19.0323 27.6906 19.0228C26.6173 18.9638 26.8122 19.0346 25.9515 18.3909C25.7941 18.2703 25.6013 18.2049 25.403 18.2049C25.2047 18.2049 25.012 18.2703 24.8546 18.3909C23.9939 19.0346 24.1902 18.9638 23.1169 19.0228C22.9188 19.0322 22.7292 19.1064 22.5773 19.2338C22.4253 19.3613 22.3193 19.535 22.2755 19.7285C22.0304 20.7753 22.1352 20.5951 21.3513 21.3303C21.2054 21.4646 21.1078 21.6432 21.0734 21.8384C21.039 22.0337 21.0697 22.2349 21.1608 22.411Z" fill="white"/>
<circle cx="36" cy="32" r="30" stroke="#2F3045" stroke-linecap="round" stroke-linejoin="round" stroke-dasharray="6 6"/>
</svg>
