<svg width="297" height="297" viewBox="0 0 297 297" fill="none" xmlns="http://www.w3.org/2000/svg">
<circle cx="148.288" cy="148.288" r="148.288" fill="#EBF1FF"/>
<ellipse opacity="0.5" cx="12.109" cy="105.05" rx="2.10905" ry="2.05023" fill="#476BC7"/>
<ellipse opacity="0.5" cx="185.051" cy="105.05" rx="2.10905" ry="2.05023" fill="#476BC7"/>
<ellipse opacity="0.5" cx="12.109" cy="118.718" rx="2.10905" ry="2.05023" fill="#476BC7"/>
<ellipse opacity="0.5" cx="185.051" cy="118.718" rx="2.10905" ry="2.05023" fill="#476BC7"/>
<ellipse opacity="0.5" cx="12.109" cy="132.386" rx="2.10905" ry="2.05023" fill="#476BC7"/>
<ellipse opacity="0.5" cx="185.051" cy="132.386" rx="2.10905" ry="2.05023" fill="#476BC7"/>
<ellipse opacity="0.5" cx="12.109" cy="146.055" rx="2.10905" ry="2.05023" fill="#476BC7"/>
<ellipse opacity="0.5" cx="12.109" cy="177.491" rx="2.10905" ry="2.05023" fill="#476BC7"/>
<ellipse opacity="0.5" cx="185.051" cy="146.055" rx="2.10905" ry="2.05023" fill="#476BC7"/>
<ellipse opacity="0.5" cx="185.051" cy="177.491" rx="2.10905" ry="2.05023" fill="#476BC7"/>
<ellipse opacity="0.5" cx="12.109" cy="159.723" rx="2.10905" ry="2.05023" fill="#476BC7"/>
<ellipse opacity="0.5" cx="12.109" cy="191.16" rx="2.10905" ry="2.05023" fill="#476BC7"/>
<ellipse opacity="0.5" cx="185.051" cy="159.723" rx="2.10905" ry="2.05023" fill="#476BC7"/>
<ellipse opacity="0.5" cx="185.051" cy="191.16" rx="2.10905" ry="2.05023" fill="#476BC7"/>
<ellipse opacity="0.5" cx="68.3507" cy="105.05" rx="2.10905" ry="2.05023" fill="#476BC7"/>
<ellipse opacity="0.5" cx="241.292" cy="105.05" rx="2.10905" ry="2.05023" fill="#476BC7"/>
<ellipse opacity="0.5" cx="68.3507" cy="118.718" rx="2.10905" ry="2.05023" fill="#476BC7"/>
<ellipse opacity="0.5" cx="241.292" cy="118.718" rx="2.10905" ry="2.05023" fill="#476BC7"/>
<ellipse opacity="0.5" cx="68.3507" cy="132.386" rx="2.10905" ry="2.05023" fill="#476BC7"/>
<ellipse opacity="0.5" cx="241.292" cy="132.386" rx="2.10905" ry="2.05023" fill="#476BC7"/>
<ellipse opacity="0.5" cx="68.3507" cy="146.055" rx="2.10905" ry="2.05023" fill="#476BC7"/>
<ellipse opacity="0.5" cx="68.3507" cy="177.491" rx="2.10905" ry="2.05023" fill="#476BC7"/>
<ellipse opacity="0.5" cx="241.292" cy="146.055" rx="2.10905" ry="2.05023" fill="#476BC7"/>
<ellipse opacity="0.5" cx="241.292" cy="177.491" rx="2.10905" ry="2.05023" fill="#476BC7"/>
<ellipse opacity="0.5" cx="68.3507" cy="159.723" rx="2.10905" ry="2.05023" fill="#476BC7"/>
<ellipse opacity="0.5" cx="68.3507" cy="191.16" rx="2.10905" ry="2.05023" fill="#476BC7"/>
<ellipse opacity="0.5" cx="241.292" cy="159.723" rx="2.10905" ry="2.05023" fill="#476BC7"/>
<ellipse opacity="0.5" cx="241.292" cy="191.16" rx="2.10905" ry="2.05023" fill="#476BC7"/>
<ellipse opacity="0.5" cx="124.592" cy="105.05" rx="2.10905" ry="2.05023" fill="#476BC7"/>
<ellipse opacity="0.5" cx="124.592" cy="118.718" rx="2.10905" ry="2.05023" fill="#476BC7"/>
<ellipse opacity="0.5" cx="124.592" cy="132.386" rx="2.10905" ry="2.05023" fill="#476BC7"/>
<ellipse opacity="0.5" cx="124.592" cy="146.055" rx="2.10905" ry="2.05023" fill="#476BC7"/>
<ellipse opacity="0.5" cx="124.592" cy="177.491" rx="2.10905" ry="2.05023" fill="#476BC7"/>
<ellipse opacity="0.5" cx="124.592" cy="159.723" rx="2.10905" ry="2.05023" fill="#476BC7"/>
<ellipse opacity="0.5" cx="124.592" cy="191.16" rx="2.10905" ry="2.05023" fill="#476BC7"/>
<ellipse opacity="0.5" cx="40.2297" cy="105.05" rx="2.10905" ry="2.05023" fill="#476BC7"/>
<ellipse opacity="0.5" cx="213.172" cy="105.05" rx="2.10905" ry="2.05023" fill="#476BC7"/>
<ellipse opacity="0.5" cx="40.2297" cy="118.718" rx="2.10905" ry="2.05023" fill="#476BC7"/>
<ellipse opacity="0.5" cx="213.172" cy="118.718" rx="2.10905" ry="2.05023" fill="#476BC7"/>
<ellipse opacity="0.5" cx="40.2297" cy="132.386" rx="2.10905" ry="2.05023" fill="#476BC7"/>
<ellipse opacity="0.5" cx="213.172" cy="132.386" rx="2.10905" ry="2.05023" fill="#476BC7"/>
<ellipse opacity="0.5" cx="40.2297" cy="146.055" rx="2.10905" ry="2.05023" fill="#476BC7"/>
<ellipse opacity="0.5" cx="40.2297" cy="177.491" rx="2.10905" ry="2.05023" fill="#476BC7"/>
<ellipse opacity="0.5" cx="213.172" cy="146.055" rx="2.10905" ry="2.05023" fill="#476BC7"/>
<ellipse opacity="0.5" cx="213.172" cy="177.491" rx="2.10905" ry="2.05023" fill="#476BC7"/>
<ellipse opacity="0.5" cx="40.2297" cy="159.723" rx="2.10905" ry="2.05023" fill="#476BC7"/>
<ellipse opacity="0.5" cx="40.2297" cy="191.16" rx="2.10905" ry="2.05023" fill="#476BC7"/>
<ellipse opacity="0.5" cx="213.172" cy="159.723" rx="2.10905" ry="2.05023" fill="#476BC7"/>
<ellipse opacity="0.5" cx="213.172" cy="191.16" rx="2.10905" ry="2.05023" fill="#476BC7"/>
<ellipse opacity="0.5" cx="96.4704" cy="105.05" rx="2.10905" ry="2.05023" fill="#476BC7"/>
<ellipse opacity="0.5" cx="269.413" cy="105.05" rx="2.10905" ry="2.05023" fill="#476BC7"/>
<ellipse opacity="0.5" cx="96.4704" cy="118.718" rx="2.10905" ry="2.05023" fill="#476BC7"/>
<ellipse opacity="0.5" cx="269.413" cy="118.718" rx="2.10905" ry="2.05023" fill="#476BC7"/>
<ellipse opacity="0.5" cx="96.4704" cy="132.386" rx="2.10905" ry="2.05023" fill="#476BC7"/>
<ellipse opacity="0.5" cx="269.413" cy="132.386" rx="2.10905" ry="2.05023" fill="#476BC7"/>
<ellipse opacity="0.5" cx="96.4704" cy="146.055" rx="2.10905" ry="2.05023" fill="#476BC7"/>
<ellipse opacity="0.5" cx="96.4704" cy="177.491" rx="2.10905" ry="2.05023" fill="#476BC7"/>
<ellipse opacity="0.5" cx="269.413" cy="146.055" rx="2.10905" ry="2.05023" fill="#476BC7"/>
<ellipse opacity="0.5" cx="269.413" cy="177.491" rx="2.10905" ry="2.05023" fill="#476BC7"/>
<ellipse opacity="0.5" cx="96.4704" cy="159.723" rx="2.10905" ry="2.05023" fill="#476BC7"/>
<ellipse opacity="0.5" cx="96.4704" cy="191.16" rx="2.10905" ry="2.05023" fill="#476BC7"/>
<ellipse opacity="0.5" cx="269.413" cy="159.723" rx="2.10905" ry="2.05023" fill="#476BC7"/>
<ellipse opacity="0.5" cx="269.413" cy="191.16" rx="2.10905" ry="2.05023" fill="#476BC7"/>
<ellipse opacity="0.5" cx="152.712" cy="105.05" rx="2.10905" ry="2.05023" fill="#476BC7"/>
<ellipse opacity="0.5" cx="152.712" cy="118.718" rx="2.10905" ry="2.05023" fill="#476BC7"/>
<ellipse opacity="0.5" cx="152.712" cy="132.386" rx="2.10905" ry="2.05023" fill="#476BC7"/>
<ellipse opacity="0.5" cx="152.712" cy="146.055" rx="2.10905" ry="2.05023" fill="#476BC7"/>
<ellipse opacity="0.5" cx="152.712" cy="177.491" rx="2.10905" ry="2.05023" fill="#476BC7"/>
<ellipse opacity="0.5" cx="152.712" cy="159.723" rx="2.10905" ry="2.05023" fill="#476BC7"/>
<ellipse opacity="0.5" cx="152.712" cy="191.16" rx="2.10905" ry="2.05023" fill="#476BC7"/>
<ellipse opacity="0.5" cx="26.1689" cy="105.05" rx="2.10905" ry="2.05023" fill="#476BC7"/>
<ellipse opacity="0.5" cx="199.111" cy="105.05" rx="2.10905" ry="2.05023" fill="#476BC7"/>
<ellipse opacity="0.5" cx="26.1689" cy="118.718" rx="2.10905" ry="2.05023" fill="#476BC7"/>
<ellipse opacity="0.5" cx="199.111" cy="118.718" rx="2.10905" ry="2.05023" fill="#476BC7"/>
<ellipse opacity="0.5" cx="26.1689" cy="132.386" rx="2.10905" ry="2.05023" fill="#476BC7"/>
<ellipse opacity="0.5" cx="199.111" cy="132.386" rx="2.10905" ry="2.05023" fill="#476BC7"/>
<ellipse opacity="0.5" cx="26.1689" cy="146.055" rx="2.10905" ry="2.05023" fill="#476BC7"/>
<ellipse opacity="0.5" cx="26.1689" cy="177.491" rx="2.10905" ry="2.05023" fill="#476BC7"/>
<ellipse opacity="0.5" cx="199.111" cy="146.055" rx="2.10905" ry="2.05023" fill="#476BC7"/>
<ellipse opacity="0.5" cx="199.111" cy="177.491" rx="2.10905" ry="2.05023" fill="#476BC7"/>
<ellipse opacity="0.5" cx="26.1689" cy="159.723" rx="2.10905" ry="2.05023" fill="#476BC7"/>
<ellipse opacity="0.5" cx="26.1689" cy="191.16" rx="2.10905" ry="2.05023" fill="#476BC7"/>
<ellipse opacity="0.5" cx="199.111" cy="159.723" rx="2.10905" ry="2.05023" fill="#476BC7"/>
<ellipse opacity="0.5" cx="199.111" cy="191.16" rx="2.10905" ry="2.05023" fill="#476BC7"/>
<ellipse opacity="0.5" cx="82.4101" cy="105.05" rx="2.10905" ry="2.05023" fill="#476BC7"/>
<ellipse opacity="0.5" cx="255.353" cy="105.05" rx="2.10905" ry="2.05023" fill="#476BC7"/>
<ellipse opacity="0.5" cx="82.4101" cy="118.718" rx="2.10905" ry="2.05023" fill="#476BC7"/>
<ellipse opacity="0.5" cx="255.353" cy="118.718" rx="2.10905" ry="2.05023" fill="#476BC7"/>
<ellipse opacity="0.5" cx="82.4101" cy="132.386" rx="2.10905" ry="2.05023" fill="#476BC7"/>
<ellipse opacity="0.5" cx="255.353" cy="132.386" rx="2.10905" ry="2.05023" fill="#476BC7"/>
<ellipse opacity="0.5" cx="82.4101" cy="146.055" rx="2.10905" ry="2.05023" fill="#476BC7"/>
<ellipse opacity="0.5" cx="82.4101" cy="177.491" rx="2.10905" ry="2.05023" fill="#476BC7"/>
<ellipse opacity="0.5" cx="255.353" cy="146.055" rx="2.10905" ry="2.05023" fill="#476BC7"/>
<ellipse opacity="0.5" cx="255.353" cy="177.491" rx="2.10905" ry="2.05023" fill="#476BC7"/>
<ellipse opacity="0.5" cx="82.4101" cy="159.723" rx="2.10905" ry="2.05023" fill="#476BC7"/>
<ellipse opacity="0.5" cx="82.4101" cy="191.16" rx="2.10905" ry="2.05023" fill="#476BC7"/>
<ellipse opacity="0.5" cx="255.353" cy="159.723" rx="2.10905" ry="2.05023" fill="#476BC7"/>
<ellipse opacity="0.5" cx="255.353" cy="191.16" rx="2.10905" ry="2.05023" fill="#476BC7"/>
<ellipse opacity="0.5" cx="138.652" cy="105.05" rx="2.10905" ry="2.05023" fill="#476BC7"/>
<ellipse opacity="0.5" cx="138.652" cy="118.718" rx="2.10905" ry="2.05023" fill="#476BC7"/>
<ellipse opacity="0.5" cx="138.652" cy="132.386" rx="2.10905" ry="2.05023" fill="#476BC7"/>
<ellipse opacity="0.5" cx="138.652" cy="146.055" rx="2.10905" ry="2.05023" fill="#476BC7"/>
<ellipse opacity="0.5" cx="138.652" cy="177.491" rx="2.10905" ry="2.05023" fill="#476BC7"/>
<ellipse opacity="0.5" cx="138.652" cy="159.723" rx="2.10905" ry="2.05023" fill="#476BC7"/>
<ellipse opacity="0.5" cx="138.652" cy="191.16" rx="2.10905" ry="2.05023" fill="#476BC7"/>
<ellipse opacity="0.5" cx="54.2904" cy="105.05" rx="2.10905" ry="2.05023" fill="#476BC7"/>
<ellipse opacity="0.5" cx="227.231" cy="105.05" rx="2.10905" ry="2.05023" fill="#476BC7"/>
<ellipse opacity="0.5" cx="54.2904" cy="118.718" rx="2.10905" ry="2.05023" fill="#476BC7"/>
<ellipse opacity="0.5" cx="227.231" cy="118.718" rx="2.10905" ry="2.05023" fill="#476BC7"/>
<ellipse opacity="0.5" cx="54.2904" cy="132.386" rx="2.10905" ry="2.05023" fill="#476BC7"/>
<ellipse opacity="0.5" cx="227.231" cy="132.386" rx="2.10905" ry="2.05023" fill="#476BC7"/>
<ellipse opacity="0.5" cx="54.2904" cy="146.055" rx="2.10905" ry="2.05023" fill="#476BC7"/>
<ellipse opacity="0.5" cx="54.2904" cy="177.491" rx="2.10905" ry="2.05023" fill="#476BC7"/>
<ellipse opacity="0.5" cx="227.231" cy="146.055" rx="2.10905" ry="2.05023" fill="#476BC7"/>
<ellipse opacity="0.5" cx="227.231" cy="177.491" rx="2.10905" ry="2.05023" fill="#476BC7"/>
<ellipse opacity="0.5" cx="54.2904" cy="159.723" rx="2.10905" ry="2.05023" fill="#476BC7"/>
<ellipse opacity="0.5" cx="54.2904" cy="191.16" rx="2.10905" ry="2.05023" fill="#476BC7"/>
<ellipse opacity="0.5" cx="227.231" cy="159.723" rx="2.10905" ry="2.05023" fill="#476BC7"/>
<ellipse opacity="0.5" cx="227.231" cy="191.16" rx="2.10905" ry="2.05023" fill="#476BC7"/>
<ellipse opacity="0.5" cx="110.531" cy="105.05" rx="2.10905" ry="2.05023" fill="#476BC7"/>
<ellipse opacity="0.5" cx="283.473" cy="105.05" rx="2.10905" ry="2.05023" fill="#476BC7"/>
<ellipse opacity="0.5" cx="110.531" cy="118.718" rx="2.10905" ry="2.05023" fill="#476BC7"/>
<ellipse opacity="0.5" cx="283.473" cy="118.718" rx="2.10905" ry="2.05023" fill="#476BC7"/>
<ellipse opacity="0.5" cx="110.531" cy="132.386" rx="2.10905" ry="2.05023" fill="#476BC7"/>
<ellipse opacity="0.5" cx="283.473" cy="132.386" rx="2.10905" ry="2.05023" fill="#476BC7"/>
<ellipse opacity="0.5" cx="110.531" cy="146.055" rx="2.10905" ry="2.05023" fill="#476BC7"/>
<ellipse opacity="0.5" cx="110.531" cy="177.491" rx="2.10905" ry="2.05023" fill="#476BC7"/>
<ellipse opacity="0.5" cx="283.473" cy="146.055" rx="2.10905" ry="2.05023" fill="#476BC7"/>
<ellipse opacity="0.5" cx="283.473" cy="177.491" rx="2.10905" ry="2.05023" fill="#476BC7"/>
<ellipse opacity="0.5" cx="110.531" cy="159.723" rx="2.10905" ry="2.05023" fill="#476BC7"/>
<ellipse opacity="0.5" cx="110.531" cy="191.16" rx="2.10905" ry="2.05023" fill="#476BC7"/>
<ellipse opacity="0.5" cx="283.473" cy="159.723" rx="2.10905" ry="2.05023" fill="#476BC7"/>
<ellipse opacity="0.5" cx="283.473" cy="191.16" rx="2.10905" ry="2.05023" fill="#476BC7"/>
<ellipse opacity="0.5" cx="166.772" cy="105.05" rx="2.10905" ry="2.05023" fill="#476BC7"/>
<ellipse opacity="0.5" cx="166.772" cy="118.718" rx="2.10905" ry="2.05023" fill="#476BC7"/>
<ellipse opacity="0.5" cx="166.772" cy="132.386" rx="2.10905" ry="2.05023" fill="#476BC7"/>
<ellipse opacity="0.5" cx="166.772" cy="146.055" rx="2.10905" ry="2.05023" fill="#476BC7"/>
<ellipse opacity="0.5" cx="166.772" cy="177.491" rx="2.10905" ry="2.05023" fill="#476BC7"/>
<ellipse opacity="0.5" cx="166.772" cy="159.723" rx="2.10905" ry="2.05023" fill="#476BC7"/>
<ellipse opacity="0.5" cx="166.772" cy="191.16" rx="2.10905" ry="2.05023" fill="#476BC7"/>
<path d="M284.464 185.854C284.069 187.123 282.108 191.491 273.571 193.963C274.857 197.242 276.636 204.081 271.709 208.959C271.165 209.619 268.199 212.849 262.876 212.849C261.458 212.849 259.975 212.618 258.475 212.156C257.009 215.123 253.037 221.501 246.148 221.501C245.193 221.501 244.22 221.385 243.264 221.138C243.182 221.122 243.116 221.089 243.05 221.072L238.255 219.144C238.749 218.584 238.996 218.271 239.013 218.238C258.855 195.545 264.046 172.951 264.26 171.995C264.458 171.121 263.897 170.231 263.007 170.034C262.118 169.836 261.244 170.396 261.046 171.286C260.98 171.517 255.789 194.045 236.442 216.178C236.425 216.194 235.98 216.804 235.008 217.826L234.497 217.628C234.217 217.512 227.543 214.744 225.4 209.421C224.444 207.048 224.51 204.559 225.614 202.038C226.208 200.044 228.317 196.698 232.635 195.742C230.344 193.007 227.576 188.541 228.894 184.141C229.026 183.778 231.514 176.741 238.782 176.477C237.035 170.907 236.755 162.387 244.896 158.316C245.061 158.185 245.259 158.102 245.456 158.036C245.736 157.954 251.208 156.388 258.195 160.277C259.942 157.328 264.26 151.296 270.127 151.296C271.973 151.296 273.802 151.889 275.549 153.076C276.587 153.669 282.932 157.888 278.565 170.759C281.102 173.049 287.793 179.905 284.464 185.854Z" fill="#476BC7"/>
<path d="M223.077 227.368C222.734 227.614 222.499 227.983 222.421 228.397C222.342 228.812 222.425 229.241 222.654 229.596C222.882 229.951 223.237 230.205 223.647 230.305C224.057 230.406 224.49 230.345 224.856 230.136C232.487 225.275 236.673 220.957 238.255 219.144L235.008 217.826C233.129 219.82 229.322 223.396 223.077 227.368Z" fill="#2F3045"/>
</svg>
