<svg width="34" height="34" viewBox="0 0 34 34" fill="none" xmlns="http://www.w3.org/2000/svg">
<g clip-path="url(#clip0_1111_51234)">
<path fill-rule="evenodd" clip-rule="evenodd" d="M16.6881 2.92829C15.634 2.90939 14.5866 3.09867 13.6058 3.48529C12.625 3.8719 11.7301 4.44825 10.9724 5.18131C10.2147 5.91437 9.60912 6.78973 9.19032 7.75724C8.77274 8.72195 8.54905 9.75937 8.53197 10.8104V21.7142C8.53197 22.3583 8.2761 22.976 7.82066 23.4315C7.36521 23.8869 6.7475 24.1428 6.1034 24.1428H3.74626C2.78958 24.1428 1.87209 23.7627 1.19562 23.0863C0.519152 22.4098 0.139114 21.4923 0.139114 20.5356V15.8213C0.139114 14.8647 0.519152 13.9472 1.19562 13.2707C1.87209 12.5942 2.78958 12.2142 3.74626 12.2142H6.03197V10.8006L6.03211 10.7817C6.05301 9.39875 6.34659 8.03347 6.89604 6.76413C7.44549 5.49479 8.24001 4.34634 9.23407 3.38458C10.2281 2.42283 11.4022 1.66668 12.689 1.15945C13.9688 0.654967 15.3352 0.406587 16.7105 0.428314C18.0859 0.406587 19.4523 0.654967 20.7321 1.15945C22.0189 1.66668 23.193 2.42283 24.187 3.38458C25.1811 4.34634 25.9756 5.49479 26.525 6.76413C27.0745 8.03347 27.3681 9.39875 27.389 10.7817L27.3891 10.8006V12.2142H29.6748C30.6315 12.2142 31.549 12.5942 32.2255 13.2707C32.9019 13.9472 33.282 14.8647 33.282 15.8213V20.5356C33.282 21.4923 32.9019 22.4098 32.2255 23.0863C31.549 23.7627 30.6315 24.1428 29.6748 24.1428H27.3891V24.6606C27.3891 26.2425 26.7607 27.7595 25.6422 28.878C24.784 29.7363 23.691 30.306 22.5143 30.5246C22.3203 31.2055 21.9553 31.8327 21.4457 32.3422C20.6587 33.1292 19.5914 33.5713 18.4784 33.5713H14.9427C13.8297 33.5713 12.7623 33.1292 11.9754 32.3422C11.1884 31.5553 10.7463 30.4879 10.7463 29.3749C10.7463 28.262 11.1884 27.1946 11.9754 26.4076C12.7623 25.6206 13.8297 25.1785 14.9427 25.1785H18.4784C19.5914 25.1785 20.6587 25.6206 21.4457 26.4076C21.8921 26.854 22.2276 27.3906 22.4343 27.9746C22.9731 27.8104 23.4689 27.5158 23.8744 27.1103C24.5241 26.4606 24.8891 25.5794 24.8891 24.6606V10.8104C24.872 9.75937 24.6483 8.72195 24.2308 7.75724C23.812 6.78973 23.2064 5.91437 22.4487 5.18131C21.691 4.44825 20.7961 3.8719 19.8153 3.48529C18.8345 3.09867 17.787 2.90939 16.733 2.92829C16.718 2.92856 16.7031 2.92856 16.6881 2.92829ZM27.3891 21.6428H29.6748C29.9685 21.6428 30.2501 21.5261 30.4577 21.3185C30.6653 21.1109 30.782 20.8293 30.782 20.5356V15.8213C30.782 15.5277 30.6653 15.2461 30.4577 15.0385C30.2501 14.8308 29.9685 14.7142 29.6748 14.7142H27.3891V21.6428ZM6.03197 14.7142H3.74626C3.45263 14.7142 3.17102 14.8308 2.96339 15.0385C2.75576 15.2461 2.63911 15.5277 2.63911 15.8213V20.5356C2.63911 20.8293 2.75576 21.1109 2.96339 21.3185C3.17102 21.5261 3.45263 21.6428 3.74626 21.6428H6.03197V14.7142ZM14.9427 27.6785C14.4928 27.6785 14.0613 27.8572 13.7431 28.1754C13.425 28.4935 13.2463 28.925 13.2463 29.3749C13.2463 29.8248 13.425 30.2563 13.7431 30.5745C14.0613 30.8926 14.4928 31.0713 14.9427 31.0713H18.4784C18.9283 31.0713 19.3598 30.8926 19.678 30.5745C19.9961 30.2563 20.1748 29.8248 20.1748 29.3749C20.1748 28.925 19.9961 28.4935 19.678 28.1754C19.3598 27.8572 18.9283 27.6785 18.4784 27.6785H14.9427Z" fill="#476BC7"/>
</g>
<defs>
<clipPath id="clip0_1111_51234">
<rect width="33" height="33" fill="white" transform="translate(0.210541 0.5)"/>
</clipPath>
</defs>
</svg>
