<svg width="150" height="149" viewBox="0 0 150 149" fill="none" xmlns="http://www.w3.org/2000/svg">
<g filter="url(#filter0_d_1111_53383)">
<rect x="14.5" y="14.2085" width="113" height="112" rx="56" fill="#F9FAFC"/>
<g clip-path="url(#clip0_1111_53383)">
<path d="M70.7873 97.2083C85.3053 97.2083 97.0744 85.4392 97.0744 70.9212C97.0744 56.4032 85.3053 44.634 70.7873 44.634C56.2693 44.634 44.5001 56.4032 44.5001 70.9212C44.5001 85.4392 56.2693 97.2083 70.7873 97.2083Z" fill="#DD636E"/>
<path d="M72.4749 97.1556C71.917 97.1897 71.3539 97.2084 70.7874 97.2084C56.2684 97.2084 44.5 85.4384 44.5 70.9212C44.5 56.404 56.2684 44.6338 70.7874 44.6338C71.3539 44.6338 71.917 44.6525 72.4749 44.6866C58.7477 45.5638 47.8853 56.9739 47.8853 70.9212C47.8853 84.8685 58.7477 96.2786 72.4749 97.1556Z" fill="#CB5769"/>
<path d="M70.7873 91.0123C81.8833 91.0123 90.8784 82.0172 90.8784 70.9212C90.8784 59.8252 81.8833 50.8301 70.7873 50.8301C59.6913 50.8301 50.6962 59.8252 50.6962 70.9212C50.6962 82.0172 59.6913 91.0123 70.7873 91.0123Z" fill="#D3EFFB"/>
<path d="M74.2977 90.7211C73.1667 90.9162 72.0209 91.0139 70.8732 91.013C59.777 91.013 50.7815 82.0173 50.7815 70.9213C50.7815 59.8253 59.7772 50.8296 70.8732 50.8296C72.0402 50.8296 73.1852 50.9285 74.2977 51.1214C64.8346 52.7458 57.6323 60.9923 57.6323 70.9213C57.6323 80.8502 64.8346 89.0968 74.2977 90.7211Z" fill="#9DC6FB"/>
<path d="M70.7873 73.4806H61.453C60.0395 73.4806 58.8936 72.3346 58.8936 70.9211C58.8936 69.5075 60.0395 68.3616 61.453 68.3616H70.7873C72.2008 68.3616 73.3468 69.5075 73.3468 70.9211C73.3466 72.3347 72.2008 73.4806 70.7873 73.4806Z" fill="#365E7D"/>
<path d="M70.7873 73.4807C69.3738 73.4807 68.2278 72.3347 68.2278 70.9212V64.3859C68.2278 62.9724 69.3738 61.8264 70.7873 61.8264C72.2008 61.8264 73.3468 62.9724 73.3468 64.3859V70.9212C73.3466 72.3349 72.2008 73.4807 70.7873 73.4807Z" fill="#2B4D66"/>
<path d="M70.7872 56.5011C70.6701 56.5011 70.5541 56.4781 70.4459 56.4333C70.3377 56.3884 70.2394 56.3227 70.1565 56.2399C70.0737 56.1571 70.008 56.0588 69.9632 55.9505C69.9184 55.8423 69.8953 55.7263 69.8953 55.6092V51.5841C69.8953 51.3475 69.9893 51.1206 70.1566 50.9534C70.3238 50.7861 70.5507 50.6921 70.7872 50.6921C71.0238 50.6921 71.2507 50.7861 71.4179 50.9534C71.5852 51.1206 71.6792 51.3475 71.6792 51.5841V55.6092C71.6792 55.7263 71.6561 55.8423 71.6113 55.9505C71.5665 56.0588 71.5008 56.1571 71.418 56.2399C71.3351 56.3227 71.2368 56.3884 71.1286 56.4333C71.0204 56.4781 70.9044 56.5011 70.7872 56.5011ZM70.7872 91.1504C70.6701 91.1504 70.5541 91.1273 70.4459 91.0825C70.3377 91.0377 70.2393 90.972 70.1565 90.8891C70.0737 90.8063 70.008 90.708 69.9632 90.5997C69.9184 90.4915 69.8953 90.3755 69.8953 90.2584V86.2333C69.8934 86.115 69.9151 85.9975 69.959 85.8876C70.003 85.7777 70.0684 85.6776 70.1514 85.5933C70.2344 85.5089 70.3334 85.4419 70.4425 85.3961C70.5517 85.3504 70.6689 85.3269 70.7872 85.3269C70.9056 85.3269 71.0228 85.3504 71.1319 85.3961C71.2411 85.4419 71.3401 85.5089 71.4231 85.5933C71.5061 85.6776 71.5715 85.7777 71.6155 85.8876C71.6594 85.9975 71.6811 86.115 71.6792 86.2333V90.2584C71.6792 90.4949 71.5852 90.7218 71.4179 90.8891C71.2507 91.0564 71.0238 91.1504 70.7872 91.1504ZM90.1245 71.8132H86.0993C85.9813 71.8145 85.8642 71.7925 85.7548 71.7483C85.6454 71.704 85.5459 71.6385 85.462 71.5556C85.378 71.4726 85.3114 71.3738 85.2659 71.2649C85.2205 71.1561 85.1971 71.0392 85.1971 70.9212C85.1971 70.8032 85.2205 70.6864 85.2659 70.5775C85.3114 70.4686 85.378 70.3698 85.462 70.2869C85.5459 70.2039 85.6454 70.1384 85.7548 70.0942C85.8642 70.05 85.9813 70.0279 86.0993 70.0292H90.1245C90.2416 70.0292 90.3576 70.0523 90.4658 70.0971C90.574 70.1419 90.6724 70.2076 90.7552 70.2904C90.838 70.3733 90.9037 70.4716 90.9485 70.5798C90.9933 70.688 91.0164 70.804 91.0164 70.9212C91.0164 71.0383 90.9933 71.1543 90.9485 71.2625C90.9037 71.3707 90.838 71.4691 90.7552 71.5519C90.6724 71.6348 90.574 71.7005 90.4658 71.7453C90.3576 71.7901 90.2416 71.8132 90.1245 71.8132ZM55.4752 71.8132H51.45C50.9574 71.8132 50.5581 71.4138 50.5581 70.9212C50.5581 70.4285 50.9575 70.0292 51.45 70.0292H55.4752C55.5923 70.0292 55.7083 70.0523 55.8165 70.0971C55.9247 70.1419 56.0231 70.2076 56.1059 70.2904C56.1887 70.3733 56.2544 70.4716 56.2992 70.5798C56.344 70.688 56.3671 70.804 56.3671 70.9212C56.3671 71.0383 56.3441 71.1543 56.2993 71.2625C56.2545 71.3708 56.1888 71.4691 56.1059 71.552C56.0231 71.6348 55.9248 71.7005 55.8165 71.7453C55.7083 71.7901 55.5923 71.8132 55.4752 71.8132ZM85.477 63.3327C85.2805 63.3331 85.0894 63.2685 84.9333 63.149C84.7773 63.0296 84.665 62.8619 84.6141 62.6721C84.5631 62.4823 84.5763 62.281 84.6516 62.0994C84.7268 61.9179 84.8599 61.7663 85.0302 61.6682L87.0878 60.4802C87.5145 60.2338 88.0599 60.38 88.3062 60.8067C88.5525 61.2334 88.4063 61.7789 87.9797 62.0251L85.9221 63.213C85.7869 63.2914 85.6334 63.3327 85.477 63.3327ZM54.0415 81.482C53.8848 81.4821 53.7308 81.441 53.595 81.3627C53.4592 81.2843 53.3465 81.1716 53.2682 81.0359C53.2096 80.9344 53.1716 80.8224 53.1563 80.7063C53.141 80.5902 53.1487 80.4722 53.179 80.359C53.2094 80.2459 53.2617 80.1398 53.333 80.0469C53.4043 79.954 53.4932 79.876 53.5947 79.8175L55.6522 78.6295C55.7537 78.5709 55.8657 78.5329 55.9818 78.5176C56.0979 78.5023 56.2159 78.5101 56.3291 78.5404C56.4422 78.5707 56.5483 78.623 56.6412 78.6943C56.7341 78.7656 56.8121 78.8546 56.8706 78.956C56.9292 79.0574 56.9673 79.1694 56.9825 79.2856C56.9978 79.4017 56.9901 79.5197 56.9598 79.6328C56.9295 79.746 56.8772 79.852 56.8059 79.945C56.7345 80.0379 56.6456 80.1159 56.5442 80.1744L54.4867 81.3623C54.3514 81.4407 54.1978 81.482 54.0415 81.482ZM79.267 57.1244C79.1105 57.1243 78.9568 57.083 78.8213 57.0047C78.6858 56.9263 78.5733 56.8137 78.4951 56.6781C78.4169 56.5425 78.3757 56.3887 78.3758 56.2322C78.3758 56.0757 78.4171 55.9219 78.4954 55.7864L79.6833 53.7288C79.8016 53.524 79.9964 53.3745 80.2249 53.3132C80.4534 53.252 80.6968 53.2841 80.9017 53.4023C81.1066 53.5206 81.2561 53.7154 81.3173 53.9439C81.3785 54.1724 81.3465 54.4159 81.2282 54.6207L80.0403 56.6783C79.962 56.8141 79.8493 56.9268 79.7135 57.0051C79.5778 57.0835 79.4238 57.1246 79.267 57.1244ZM61.1179 88.5599C60.9613 88.5598 60.8076 88.5185 60.6721 88.4401C60.5366 88.3618 60.4241 88.2491 60.3459 88.1136C60.2677 87.978 60.2265 87.8242 60.2266 87.6676C60.2267 87.5111 60.2679 87.3574 60.3462 87.2218L61.5341 85.1642C61.5927 85.0628 61.6707 84.9739 61.7636 84.9026C61.8565 84.8313 61.9626 84.779 62.0757 84.7487C62.1888 84.7184 62.3068 84.7106 62.423 84.7259C62.5391 84.7412 62.6511 84.7792 62.7525 84.8378C62.854 84.8963 62.9429 84.9743 63.0142 85.0672C63.0855 85.1601 63.1378 85.2662 63.1681 85.3793C63.1984 85.4925 63.2062 85.6105 63.1909 85.7266C63.1756 85.8427 63.1376 85.9547 63.079 86.0562L61.8911 88.1137C61.8128 88.2495 61.7001 88.3622 61.5643 88.4406C61.4286 88.5189 61.2746 88.56 61.1179 88.5599ZM62.3073 57.1244C62.1506 57.1246 61.9966 57.0834 61.8608 57.0051C61.7251 56.9268 61.6123 56.8141 61.534 56.6783L60.3461 54.6207C60.2875 54.5193 60.2495 54.4073 60.2342 54.2912C60.2189 54.1751 60.2266 54.057 60.2569 53.9439C60.2872 53.8308 60.3396 53.7247 60.4109 53.6318C60.4822 53.5388 60.5711 53.4609 60.6726 53.4023C60.774 53.3438 60.886 53.3057 61.0021 53.2904C61.1182 53.2751 61.2362 53.2829 61.3494 53.3132C61.4625 53.3435 61.5686 53.3958 61.6615 53.4671C61.7544 53.5384 61.8324 53.6274 61.891 53.7288L63.0789 55.7864C63.1572 55.9219 63.1985 56.0757 63.1986 56.2322C63.1986 56.3887 63.1575 56.5425 63.0793 56.6781C63.0011 56.8137 62.8886 56.9264 62.7531 57.0047C62.6176 57.0831 62.4639 57.1243 62.3073 57.1244ZM80.4566 88.5599C80.2999 88.56 80.1459 88.5189 80.0101 88.4405C79.8744 88.3622 79.7616 88.2495 79.6833 88.1137L78.4954 86.0562C78.4368 85.9547 78.3988 85.8427 78.3835 85.7266C78.3682 85.6105 78.3759 85.4925 78.4062 85.3793C78.4365 85.2662 78.4888 85.1601 78.5602 85.0672C78.6315 84.9743 78.7204 84.8963 78.8219 84.8378C78.9233 84.7792 79.0353 84.7412 79.1514 84.7259C79.2675 84.7106 79.3855 84.7183 79.4987 84.7486C79.6118 84.7789 79.7179 84.8312 79.8108 84.9026C79.9037 84.9739 79.9817 85.0628 80.0403 85.1642L81.2282 87.2218C81.3065 87.3573 81.3478 87.5111 81.3479 87.6676C81.3479 87.8242 81.3068 87.978 81.2286 88.1136C81.1504 88.2492 81.0379 88.3618 80.9024 88.4401C80.7669 88.5185 80.6131 88.5598 80.4566 88.5599ZM56.0974 63.3327C55.9411 63.3327 55.7875 63.2914 55.6522 63.213L53.5947 62.0251C53.3898 61.9068 53.2403 61.712 53.1791 61.4835C53.1179 61.255 53.1499 61.0116 53.2682 60.8067C53.3865 60.6018 53.5813 60.4524 53.8098 60.3911C54.0383 60.3299 54.2817 60.362 54.4866 60.4802L56.5442 61.6682C56.7144 61.7663 56.8474 61.9179 56.9226 62.0994C56.9977 62.2809 57.0109 62.4822 56.96 62.672C56.9091 62.8617 56.7969 63.0293 56.6409 63.1488C56.485 63.2683 56.2939 63.3329 56.0974 63.3327ZM87.533 81.482C87.3766 81.482 87.2231 81.4407 87.0878 81.3623L85.0302 80.1744C84.9288 80.1159 84.8398 80.0379 84.7685 79.945C84.6972 79.852 84.6449 79.746 84.6146 79.6328C84.5843 79.5197 84.5765 79.4017 84.5918 79.2856C84.6071 79.1694 84.6451 79.0574 84.7037 78.956C84.7623 78.8546 84.8402 78.7656 84.9332 78.6943C85.0261 78.623 85.1322 78.5707 85.2453 78.5404C85.3584 78.5101 85.4765 78.5023 85.5926 78.5176C85.7087 78.5329 85.8207 78.5709 85.9221 78.6295L87.9797 79.8175C88.15 79.9156 88.2831 80.0672 88.3584 80.2487C88.4336 80.4302 88.4468 80.6315 88.3959 80.8213C88.3449 81.0111 88.2327 81.1788 88.0767 81.2983C87.9206 81.4177 87.7295 81.4823 87.533 81.482Z" fill="#365E7D"/>
<path d="M70.7873 92.2017C59.0533 92.2017 49.507 82.6554 49.507 70.9213C49.507 59.1872 59.0533 49.6409 70.7873 49.6409C82.5213 49.6409 92.0676 59.1873 92.0676 70.9213C92.0676 82.6553 82.5213 92.2017 70.7873 92.2017ZM70.7873 52.0195C60.3648 52.0195 51.8855 60.4989 51.8855 70.9213C51.8855 81.3437 60.3648 89.8231 70.7873 89.8231C81.2098 89.8231 89.689 81.3437 89.689 70.9213C89.689 60.4989 81.2097 52.0195 70.7873 52.0195Z" fill="#CB5769"/>
<path d="M92.1293 61.9496C98.9614 61.9496 104.5 56.4111 104.5 49.579C104.5 42.747 98.9614 37.2085 92.1293 37.2085C85.2973 37.2085 79.7588 42.747 79.7588 49.579C79.7588 56.4111 85.2973 61.9496 92.1293 61.9496Z" fill="#95D6A4"/>
<path d="M93.5269 61.8723C93.0631 61.9246 92.5968 61.9506 92.13 61.9503C85.2975 61.9503 79.7589 56.4117 79.7589 49.5792C79.7589 42.7476 85.2975 37.209 92.13 37.209C92.6021 37.209 93.069 37.235 93.5269 37.287C87.3523 37.981 82.5527 43.2196 82.5527 49.5792C82.5527 55.9396 87.3523 61.1783 93.5269 61.8723Z" fill="#78C2A4"/>
<path d="M88.5021 56.8214L84.6345 50.3514C84.2618 49.7279 84.465 48.9204 85.0886 48.5477L87.0398 47.3814C87.6632 47.0087 88.4707 47.2119 88.8434 47.8355L90.806 51.1187L94.8373 42.986C95.1599 42.3353 95.9489 42.0691 96.5998 42.3918L98.6364 43.4013C99.2871 43.7239 99.5533 44.513 99.2307 45.1638L93.5505 56.623C93.4455 56.8347 93.2856 57.0142 93.0873 57.1426C92.8891 57.2711 92.6599 57.3438 92.4238 57.3531L89.6828 57.4609C89.4467 57.4701 89.2125 57.4156 89.0048 57.3031C88.797 57.1905 88.6234 57.0242 88.5021 56.8214Z" fill="#F9F6F9"/>
</g>
</g>
<defs>
<filter id="filter0_d_1111_53383" x="0.5" y="0.208496" width="149" height="148" filterUnits="userSpaceOnUse" color-interpolation-filters="sRGB">
<feFlood flood-opacity="0" result="BackgroundImageFix"/>
<feColorMatrix in="SourceAlpha" type="matrix" values="0 0 0 0 0 0 0 0 0 0 0 0 0 0 0 0 0 0 127 0" result="hardAlpha"/>
<feMorphology radius="2" operator="dilate" in="SourceAlpha" result="effect1_dropShadow_1111_53383"/>
<feOffset dx="4" dy="4"/>
<feGaussianBlur stdDeviation="8"/>
<feComposite in2="hardAlpha" operator="out"/>
<feColorMatrix type="matrix" values="0 0 0 0 0 0 0 0 0 0 0 0 0 0 0 0 0 0 0.16 0"/>
<feBlend mode="normal" in2="BackgroundImageFix" result="effect1_dropShadow_1111_53383"/>
<feBlend mode="normal" in="SourceGraphic" in2="effect1_dropShadow_1111_53383" result="shape"/>
</filter>
<clipPath id="clip0_1111_53383">
<rect width="60" height="60" fill="white" transform="translate(44.5 37.2085)"/>
</clipPath>
</defs>
</svg>
