<svg width="150" height="149" viewBox="0 0 150 149" fill="none" xmlns="http://www.w3.org/2000/svg">
<g filter="url(#filter0_d_1111_53402)">
<rect x="14.7139" y="14.2085" width="113" height="112" rx="56" fill="#F9FAFC"/>
<g clip-path="url(#clip0_1111_53402)">
<path d="M50.1684 69.0269L48.2904 69.0871C48.3683 71.4293 48.7971 73.7466 49.5589 75.9612L51.3306 75.3518C50.6295 73.3133 50.2377 71.1814 50.1684 69.0269ZM93.2629 69.0269C93.1946 71.1838 92.8028 73.3183 92.1007 75.3589L93.8724 75.9754C94.6364 73.7555 95.0628 71.4336 95.1374 69.0871L93.2629 69.0269ZM80.2056 46.4839L79.5288 48.2379C82.6895 49.4674 85.5171 51.4269 87.7849 53.9533L89.1809 52.7061C86.7204 49.9547 83.6452 47.8229 80.2056 46.4839ZM63.2328 46.4839C59.7899 47.8207 56.712 49.9528 54.2503 52.7061L55.6464 53.9604C57.9111 51.4281 60.7425 49.4672 63.9096 48.2379L63.2328 46.4839Z" fill="#427096"/>
<path d="M101.714 60.8346C101.714 63.3217 100.726 65.7069 98.9672 67.4655C97.2086 69.2241 94.8234 70.2121 92.3363 70.2121C89.8492 70.2121 87.464 69.2241 85.7054 67.4655C83.9468 65.7069 82.9588 63.3217 82.9588 60.8346C82.9588 58.3475 83.9468 55.9623 85.7054 54.2037C87.464 52.445 89.8492 51.457 92.3363 51.457C94.8234 51.457 97.2086 52.445 98.9672 54.2037C100.726 55.9623 101.714 58.3475 101.714 60.8346Z" fill="#D0E5F8"/>
<path d="M92.3381 57.415L90.2333 59.2824C90.1074 59.1375 89.9401 59.0347 89.754 58.9878C89.5678 58.9409 89.3718 58.9522 89.1922 59.0202C89.0127 59.0881 88.8583 59.2095 88.7499 59.3679C88.6414 59.5263 88.5841 59.7141 88.5857 59.906V63.6478C88.5857 64.1652 89.0109 64.5833 89.5282 64.5833H95.1515C95.3994 64.5824 95.6367 64.4835 95.812 64.3083C95.9872 64.133 96.0861 63.8956 96.087 63.6478V59.9096C96.087 59.045 95.024 58.641 94.4464 59.2859L92.3381 57.415Z" fill="#427096"/>
<path d="M81.0879 49.5807C81.0879 50.8115 80.8455 52.0302 80.3745 53.1673C79.9035 54.3044 79.2131 55.3376 78.3428 56.2079C77.4725 57.0782 76.4393 57.7685 75.3022 58.2395C74.1652 58.7105 72.9464 58.953 71.7156 58.953C70.4849 58.953 69.2661 58.7105 68.129 58.2395C66.992 57.7685 65.9588 57.0782 65.0885 56.2079C64.2182 55.3376 63.5278 54.3044 63.0568 53.1673C62.5858 52.0302 62.3434 50.8115 62.3434 49.5807C62.3434 47.0951 63.3308 44.7112 65.0885 42.9536C66.8461 41.1959 69.23 40.2085 71.7156 40.2085C74.2013 40.2085 76.5852 41.1959 78.3428 42.9536C80.1005 44.7112 81.0879 47.0951 81.0879 49.5807Z" fill="#FFCA28"/>
<path d="M60.469 60.8346C60.469 63.3217 59.481 65.7069 57.7223 67.4655C55.9637 69.2241 53.5785 70.2121 51.0914 70.2121C48.6043 70.2121 46.2191 69.2241 44.4605 67.4655C42.7019 65.7069 41.7139 63.3217 41.7139 60.8346C41.7139 58.3475 42.7019 55.9623 44.4605 54.2037C46.2191 52.445 48.6043 51.457 51.0914 51.457C53.5785 51.457 55.9637 52.445 57.7223 54.2037C59.481 55.9623 60.469 58.3475 60.469 60.8346ZM56.1956 81.9602C54.5799 82.637 53.0846 83.5193 51.5786 84.4016L55.7775 92.7108L60.4654 96.0593V100.209H82.9659V96.0593L87.6502 92.7108L91.8526 84.4016C90.326 83.5612 88.7856 82.7461 87.2321 81.9566L82.9623 86.1485L74.887 88.0229H68.5443L60.4654 86.1449L56.1956 81.9602Z" fill="#D0E5F8"/>
<path d="M87.3526 82.0203C85.3683 94.9678 68.1829 98.1993 60.4654 99.0001V100.208H82.9659V96.0591L87.6502 92.7106L91.8527 84.4014C90.3657 83.5832 88.8655 82.7894 87.3526 82.0203Z" fill="#B0D2F0"/>
<path d="M67.049 74.9195L63.2824 74.8983V75.8373C63.2824 77.7153 64.3986 79.3842 66.0746 80.1247L66.4041 80.1885C67.0526 78.6968 68.7534 77.7117 71.7192 77.7117C75.4681 77.7117 77.2221 79.2708 77.3425 81.4606C77.3425 81.7441 77.3142 81.9921 77.3 82.2579L77.3744 82.272C79.1922 81.783 80.3686 80.0255 80.1205 78.1617C80.0033 77.2573 79.5576 76.4275 78.8683 75.8304C78.179 75.2332 77.2942 74.9103 76.3823 74.9231C75.1385 73.7004 73.4633 73.0168 71.7192 73.0203C70.0325 73.0203 68.3494 73.6545 67.0561 74.9231L67.049 74.9195Z" fill="#427096"/>
<path d="M64.7564 79.2352C65.1391 79.5966 65.575 79.9049 66.071 80.1211L66.4006 80.1848C67.049 78.6931 68.7498 77.708 71.7156 77.708C75.4645 77.708 77.2185 79.2671 77.339 81.4605C77.339 81.7404 77.3106 81.9884 77.2965 82.2542L77.3709 82.2684C79.1886 81.7829 80.365 80.0219 80.117 78.158C79.9997 77.2536 79.554 76.4239 78.8647 75.8267C78.1754 75.2295 77.2906 74.9066 76.3787 74.9194C76.1927 74.7392 75.9963 74.57 75.7905 74.4127C72.3605 76.8222 67.3892 78.4734 64.7564 79.2317V79.2352ZM95.4775 59.0273C94.1133 61.1994 90.7329 62.5105 88.5856 63.1518V63.6479C88.5856 64.1652 89.0109 64.5834 89.5282 64.5834H95.1515C95.3993 64.5824 95.6367 64.4836 95.812 64.3083C95.9872 64.1331 96.0861 63.8957 96.087 63.6479V59.9096C96.0869 59.7186 96.0285 59.532 95.9196 59.375C95.8107 59.218 95.6565 59.0944 95.4775 59.0273Z" fill="#365B7A"/>
<path d="M92.3381 57.415L90.2333 59.2824C90.1217 59.1532 89.9769 59.0568 89.8145 59.0037C89.6522 58.9507 89.4785 58.9429 89.312 58.9812L88.6778 59.4844C88.6147 59.6159 88.5832 59.7602 88.5856 59.906V61.9576L92.3345 58.96L96.087 61.9576V59.9025C96.0856 59.7544 96.0491 59.6087 95.9807 59.4773L95.3854 58.9989C95.2179 58.955 95.0416 58.9583 94.8759 59.0083C94.7102 59.0583 94.5616 59.1532 94.4464 59.2824L92.3381 57.415Z" fill="#365B7A"/>
<path d="M92.3133 56.1467C92.1089 56.1535 91.9123 56.2269 91.7534 56.3557L87.062 60.1046C85.9636 60.87 87.2463 62.4716 88.2313 61.5645L92.3346 58.2869L96.4378 61.5645C97.4228 62.4716 98.7055 60.87 97.6071 60.1046L92.9227 56.3557C92.7506 56.2163 92.5347 56.1423 92.3133 56.1467ZM51.079 57.075C50.9554 57.0769 50.8334 57.1031 50.7199 57.1522C50.6065 57.2014 50.5038 57.2724 50.4179 57.3613C50.332 57.4502 50.2644 57.5552 50.2192 57.6702C50.1739 57.7853 50.1518 57.9081 50.1542 58.0317V63.6551C50.1542 64.9059 52.0286 64.9059 52.0286 63.6551V58.0317C52.031 57.9061 52.0081 57.7812 51.9613 57.6645C51.9146 57.5478 51.8448 57.4417 51.7562 57.3525C51.6677 57.2632 51.5621 57.1927 51.4458 57.1451C51.3294 57.0974 51.2047 57.0736 51.079 57.075Z" fill="#427096"/>
<path d="M48.2762 59.8991C47.0289 59.8991 47.0289 61.7735 48.2762 61.7735H53.9031C55.1539 61.7735 55.1539 59.8955 53.9031 59.8955L48.2762 59.8991Z" fill="#427096"/>
<path d="M71.7157 40.2085C70.4843 40.2076 69.2648 40.4493 68.1269 40.9199C66.989 41.3905 65.9549 42.0807 65.0839 42.9511C64.2129 43.8214 63.5219 44.8549 63.0504 45.9925C62.579 47.13 62.3363 48.3494 62.3363 49.5807C62.3382 51.0613 62.6907 52.5204 63.3651 53.8384C64.0395 55.1564 65.0166 56.2959 66.2163 57.1636C65.0526 55.5658 64.4238 53.6409 64.4198 51.6642C64.4215 49.9379 64.8999 48.2456 65.8023 46.7739C66.7047 45.3023 67.9961 44.1084 69.534 43.3241C71.0718 42.5398 72.7964 42.1954 74.5176 42.3291C76.2387 42.4627 77.8895 43.0691 79.2878 44.0814C78.4203 42.8847 77.2821 41.91 75.9662 41.2369C74.6502 40.5639 73.1938 40.2115 71.7157 40.2085Z" fill="#ECB200"/>
<path d="M70.7802 44.8999C70.0354 44.9036 69.3221 45.2006 68.7949 45.7266C68.2676 46.2525 67.9688 46.9651 67.9632 47.7098C67.9632 49.2512 69.2388 50.5232 70.7802 50.5197H72.6475C73.1897 50.5197 73.5901 50.9201 73.5901 51.4551C73.5901 51.9867 73.1861 52.3906 72.6475 52.3906H68.9057C67.6549 52.3906 67.6549 54.265 68.9057 54.265H72.6475C73.3923 54.2613 74.1056 53.9643 74.6329 53.4384C75.1601 52.9124 75.4589 52.1999 75.4645 51.4551C75.4599 50.7114 75.1623 49.9993 74.6364 49.4734C74.1104 48.9474 73.3984 48.6499 72.6546 48.6453H70.7766C70.653 48.6482 70.5301 48.626 70.4152 48.58C70.3004 48.534 70.1961 48.4652 70.1087 48.3777C70.0212 48.2903 69.9524 48.186 69.9065 48.0712C69.8605 47.9564 69.8383 47.8334 69.8412 47.7098C69.8412 47.1783 70.2451 46.7779 70.7802 46.7779H74.5255C75.7728 46.7779 75.7728 44.8999 74.5255 44.8999H70.7802Z" fill="#D0E5F8"/>
<path d="M71.7015 43.9539C71.453 43.9567 71.2159 44.0579 71.0418 44.2352C70.8678 44.4125 70.7712 44.6516 70.7731 44.9V54.2651C70.7731 55.516 72.6511 55.516 72.6511 54.2651V44.9C72.652 44.7752 72.6281 44.6515 72.5807 44.536C72.5332 44.4206 72.4633 44.3157 72.3748 44.2276C72.2864 44.1396 72.1813 44.07 72.0657 44.023C71.9501 43.976 71.8263 43.9525 71.7015 43.9539Z" fill="#D0E5F8"/>
<path d="M92.3381 51.4587C91.1065 51.4583 89.887 51.7004 88.7491 52.1714C87.6111 52.6424 86.5771 53.3329 85.7061 54.2036C84.8351 55.0743 84.1442 56.108 83.6728 57.2457C83.2014 58.3835 82.9588 59.603 82.9588 60.8345C82.9606 62.3168 83.3138 63.7776 83.9895 65.097C84.6652 66.4163 85.6441 67.5567 86.8459 68.4244C85.6791 66.8264 85.0478 64.9002 85.0423 62.9216C85.0418 61.6897 85.2841 60.4699 85.7553 59.3317C86.2265 58.1935 86.9173 57.1594 87.7884 56.2883C88.6594 55.4173 89.6936 54.7264 90.8317 54.2553C91.9699 53.7841 93.1898 53.5418 94.4216 53.5422C96.3988 53.5458 98.3193 54.173 99.9209 55.3352C99.0525 54.1366 97.9128 53.1605 96.5948 52.4867C95.2769 51.813 93.8182 51.4607 92.3381 51.4587ZM51.0932 51.4587C49.8616 51.4583 48.6421 51.7004 47.5041 52.1714C46.3662 52.6424 45.3322 53.3329 44.4612 54.2036C43.5902 55.0743 42.8993 56.108 42.4279 57.2457C41.9565 58.3835 41.7139 59.603 41.7139 60.8345C41.7154 62.3156 42.0678 63.7753 42.7422 65.0939C43.4167 66.4126 44.3939 67.5527 45.5939 68.4209C44.4303 66.823 43.8015 64.8982 43.7974 62.9216C43.7985 61.1946 44.2766 59.5015 45.179 58.029C46.0813 56.5565 47.3728 55.3618 48.9111 54.5768C50.4493 53.7917 52.1745 53.4468 53.8963 53.58C55.6181 53.7132 57.2697 54.3194 58.6689 55.3317C57.8008 54.1346 56.6621 53.1598 55.3455 52.4868C54.0289 51.8137 52.5718 51.4614 51.0932 51.4587Z" fill="#B0D2F0"/>
<path d="M73.1082 88.6677L74.5255 96.4596L71.7156 99.2731L68.9022 96.4596L70.3195 88.6677H73.1082Z" fill="#427096"/>
<path d="M71.9849 88.6677C72.892 92.9906 71.0778 95.6376 69.4868 97.0443L71.7156 99.2731L74.5255 96.4596L73.1082 88.6677H71.9849Z" fill="#365B7A"/>
<path d="M77.339 92.7073C76.0882 92.7073 76.0882 94.5853 77.339 94.5853H80.1489C81.3997 94.5853 81.3997 92.7073 80.1489 92.7073H77.339Z" fill="#427096"/>
<path d="M75.057 62.7088C74.8789 62.7296 74.7105 62.8009 74.5716 62.9144L70.5463 66.1459L69.2601 64.8597C68.3742 63.9207 66.9923 65.3097 67.9384 66.1884L69.8128 68.0664C69.9761 68.2277 70.1928 68.3236 70.4219 68.336C70.6511 68.3484 70.8768 68.2764 71.0566 68.1338L75.7409 64.3813C76.4992 63.8002 76.0067 62.5919 75.057 62.7088Z" fill="#FFCA28"/>
<path d="M71.7156 77.708C67.9632 77.708 66.2128 79.2671 66.0887 81.4604C66.0887 86.1483 67.9667 88.9582 71.7156 88.9582C75.4645 88.9582 77.339 86.1483 77.339 81.4604C77.2185 79.2671 75.461 77.708 71.7156 77.708Z" fill="#FFD1B5"/>
<path d="M75.5566 78.5728C74.5291 83.2748 70.5959 85.6879 67.4494 86.8961C68.3884 88.2285 69.8057 88.9584 71.7156 88.9584C75.4645 88.9584 77.339 86.1485 77.339 81.4606C77.3161 80.8664 77.14 80.2882 76.8277 79.7822C76.5154 79.2762 76.0775 78.8595 75.5566 78.5728Z" fill="#FFB98D"/>
<path d="M55.2318 78.725L53.5735 75.8123C53.3108 75.3872 52.8958 75.0783 52.4132 74.9486C51.9306 74.8189 51.4167 74.8782 50.9762 75.1143C49.3286 76.0674 46.1076 77.9242 47.4612 80.44L48.8857 82.9097C49.0722 83.2351 49.3212 83.5203 49.6183 83.7491C49.9155 83.9779 50.2549 84.1457 50.6171 84.2429C50.9794 84.34 51.3572 84.3646 51.729 84.3152C52.1008 84.2658 52.4591 84.1434 52.7834 83.955L56.0787 82.0522C56.5157 81.7999 56.8346 81.3843 56.9651 80.8969C57.0957 80.4094 57.0273 79.8901 56.775 79.4531C56.5227 79.0161 56.1071 78.6973 55.6197 78.5667C55.1322 78.4361 54.6129 78.5045 54.1759 78.7569L53.3539 79.2317L55.2318 78.725Z" fill="#FFD1B5"/>
<path d="M49.077 83.172C49.4899 83.7361 50.0968 84.1277 50.7809 84.2716C51.465 84.4155 52.1782 84.3015 52.7834 83.9515L56.0787 82.0523C56.2951 81.9275 56.4848 81.7614 56.637 81.5634C56.7891 81.3654 56.9008 81.1394 56.9657 80.8982C57.0305 80.657 57.0472 80.4054 57.0147 80.1578C56.9823 79.9102 56.9015 79.6713 56.7768 79.455C56.6521 79.2386 56.4859 79.0489 56.2879 78.8967C56.0899 78.7445 55.8639 78.6328 55.6227 78.568C55.1356 78.4371 54.6165 78.5051 54.1795 78.7569L55.2106 78.7427L53.5735 75.8124C53.4287 75.5735 53.233 75.3696 53.0002 75.2153C52.7674 75.0609 52.5034 74.9599 52.2271 74.9194C52.546 79.3876 50.6538 81.8928 49.0735 83.1755L49.077 83.172Z" fill="#FFB98D"/>
<path d="M88.288 78.6753L89.801 75.8123C90.2971 74.8804 91.5763 74.643 92.4019 75.1142C94.046 76.0674 97.2669 77.9241 95.9134 80.4399L94.4889 82.9097C94.3024 83.235 94.0534 83.5203 93.7563 83.7491C93.4591 83.9779 93.1197 84.1457 92.7574 84.2428C92.3952 84.34 92.0173 84.3646 91.6456 84.3151C91.2738 84.2657 90.9155 84.1433 90.5912 83.955L87.2959 82.0522C86.8589 81.7998 86.54 81.3843 86.4094 80.8968C86.2789 80.4094 86.3473 79.8901 86.5996 79.4531C86.8519 79.0161 87.2675 78.6973 87.7549 78.5667C88.2423 78.4361 88.7617 78.5045 89.1987 78.7568L90.0243 79.2316L88.288 78.6753Z" fill="#FFD1B5"/>
<path d="M87.1683 81.9565C87.2108 81.9919 87.2498 82.0273 87.2994 82.0521L90.5912 83.9549C90.9156 84.1428 91.2739 84.2648 91.6456 84.314C92.0172 84.3632 92.3949 84.3385 92.757 84.2414C93.1191 84.1443 93.4585 83.9766 93.7557 83.7481C94.0529 83.5196 94.3021 83.2346 94.4889 82.9096L95.9169 80.4399C96.902 78.6044 95.4563 77.1268 93.961 76.0886C94.1027 80.2415 89.9995 81.549 87.1683 81.9565Z" fill="#FFB98D"/>
</g>
</g>
<defs>
<filter id="filter0_d_1111_53402" x="0.713867" y="0.208496" width="149" height="148" filterUnits="userSpaceOnUse" color-interpolation-filters="sRGB">
<feFlood flood-opacity="0" result="BackgroundImageFix"/>
<feColorMatrix in="SourceAlpha" type="matrix" values="0 0 0 0 0 0 0 0 0 0 0 0 0 0 0 0 0 0 127 0" result="hardAlpha"/>
<feMorphology radius="2" operator="dilate" in="SourceAlpha" result="effect1_dropShadow_1111_53402"/>
<feOffset dx="4" dy="4"/>
<feGaussianBlur stdDeviation="8"/>
<feComposite in2="hardAlpha" operator="out"/>
<feColorMatrix type="matrix" values="0 0 0 0 0 0 0 0 0 0 0 0 0 0 0 0 0 0 0.16 0"/>
<feBlend mode="normal" in2="BackgroundImageFix" result="effect1_dropShadow_1111_53402"/>
<feBlend mode="normal" in="SourceGraphic" in2="effect1_dropShadow_1111_53402" result="shape"/>
</filter>
<clipPath id="clip0_1111_53402">
<rect width="60" height="60" fill="white" transform="translate(41.7139 40.2085)"/>
</clipPath>
</defs>
</svg>
