<svg width="214" height="213" viewBox="0 0 214 213" fill="none" xmlns="http://www.w3.org/2000/svg">
<g filter="url(#filter0_d_1111_53359)">
<rect x="14.5" y="14.2085" width="176.558" height="176.558" rx="88.2791" fill="#F9FAFC"/>
<path fill-rule="evenodd" clip-rule="evenodd" d="M109.671 138.619L120.386 157.179L126.53 149.664L137.626 151.416L125.464 130.392L109.671 138.619ZM95.7314 138.619L85.0166 157.179L78.8721 149.664L67.7764 151.416L79.9385 130.367L95.7314 138.619Z" fill="#CCCC31"/>
<path fill-rule="evenodd" clip-rule="evenodd" d="M109.671 138.619L113.987 146.083C119.751 144.001 124.753 140.32 128.485 135.623L125.464 130.392L109.671 138.619ZM91.4404 146.083C85.6768 144.001 80.6748 140.32 76.9424 135.623L79.9639 130.392L95.7568 138.644L91.4404 146.083Z" fill="#A5A636"/>
<path fill-rule="evenodd" clip-rule="evenodd" d="M102.714 84.6128C119.573 84.6128 133.233 98.2729 133.233 115.132C133.233 131.992 119.573 145.677 102.714 145.677C85.8545 145.677 72.1689 132.017 72.1689 115.158C72.1689 98.2983 85.8545 84.6128 102.714 84.6128Z" fill="#E6E6E6"/>
<path fill-rule="evenodd" clip-rule="evenodd" d="M102.714 97.1812C112.642 97.1812 120.69 105.23 120.69 115.158C120.69 125.085 112.642 133.134 102.714 133.134C92.7861 133.134 84.7373 125.085 84.7373 115.158C84.7373 105.23 92.7861 97.1812 102.714 97.1812Z" fill="#CCCC31"/>
<path d="M102.714 95.1499C108.249 95.1499 113.251 97.3843 116.856 101.015C120.487 104.646 122.722 109.648 122.722 115.158C122.722 120.667 120.487 125.669 116.856 129.3C113.226 132.931 108.224 135.166 102.714 135.166C97.2041 135.166 92.2022 132.931 88.5713 129.3C84.9404 125.669 82.7061 120.667 82.7061 115.158C82.7061 109.623 84.9404 104.621 88.5713 101.015C92.1768 97.3843 97.1787 95.1499 102.714 95.1499ZM113.987 103.884C111.118 101.015 107.132 99.2124 102.714 99.2124C98.3213 99.2124 94.3096 100.99 91.4404 103.884C88.5459 106.779 86.7686 110.765 86.7686 115.158C86.7686 119.55 88.5459 123.537 91.4404 126.431C94.3096 129.326 98.2959 131.103 102.714 131.103C107.106 131.103 111.118 129.326 113.987 126.431C116.882 123.537 118.659 119.576 118.659 115.158C118.659 110.74 116.856 106.753 113.987 103.884Z" fill="#FDB614"/>
<path fill-rule="evenodd" clip-rule="evenodd" d="M59.499 65.646L63.7393 74.4565L73.4131 75.7769L66.3545 82.5308L68.0811 92.1538L59.4736 87.5327L50.8662 92.1538L52.5928 82.5308L45.585 75.7515L55.2588 74.4312L59.499 65.646ZM102.714 47.2124L106.954 56.0229L116.628 57.3433L109.569 64.0972L111.296 73.7202L102.714 69.0991L94.1064 73.7202L95.833 64.0972L88.7744 57.3433L98.4482 56.0229L102.714 47.2124ZM145.903 65.646L150.144 74.4565L159.817 75.7769L152.759 82.5308L154.485 92.1538L145.878 87.5327L137.271 92.1538L138.997 82.5308L131.938 75.7769L141.612 74.4565L145.903 65.646Z" fill="#FDB614"/>
<path fill-rule="evenodd" clip-rule="evenodd" d="M59.499 87.5073L50.8916 92.1284L52.6436 82.5054L45.585 75.7515L55.2588 74.4312L59.499 65.646V87.5073Z" fill="#E6A624"/>
<path fill-rule="evenodd" clip-rule="evenodd" d="M125.743 130.849C122.087 135.648 117.06 139.33 111.22 141.285C108.147 142.326 104.872 142.884 101.444 142.884C98.8291 142.884 96.2646 142.554 93.8271 141.919C87.8604 140.396 82.6045 137.095 78.6182 132.652C76.917 130.748 75.4697 128.64 74.2764 126.355C75.2666 128.869 76.5869 131.23 78.1865 133.388C81.792 138.238 86.8193 141.97 92.6338 144.001C95.7822 145.093 99.1592 145.703 102.688 145.703C106.218 145.703 109.595 145.093 112.743 144.001C118.558 141.97 123.56 138.238 127.19 133.388C130.974 128.31 133.233 121.988 133.233 115.158C133.233 110.105 132.015 105.357 129.831 101.167C131.202 104.646 131.964 108.404 131.964 112.365C131.964 119.322 129.653 125.72 125.743 130.849Z" fill="#B3B4B4"/>
<path fill-rule="evenodd" clip-rule="evenodd" d="M102.714 69.0991L94.1064 73.7202L95.833 64.0972L88.7744 57.3433L98.4736 56.0229L102.714 47.2124V69.0991ZM145.903 87.5073L137.296 92.1284L139.048 82.5054L131.989 75.7515L141.663 74.4312L145.903 65.646V87.5073Z" fill="#E6A624"/>
<path d="M92.9385 116.046C92.3799 115.082 92.71 113.837 93.6748 113.279C94.6396 112.72 95.8838 113.05 96.4424 114.015L99.1084 118.636L108.579 109.166C109.366 108.378 110.661 108.378 111.448 109.166C112.235 109.953 112.235 111.248 111.448 112.035L100.099 123.384C99.9717 123.511 99.8447 123.613 99.6924 123.714C98.7275 124.273 97.4834 123.943 96.9248 122.978L92.9385 116.046Z" fill="#A5A636"/>
<path d="M92.1768 113.634C91.6182 112.669 91.9482 111.425 92.9131 110.867C93.8779 110.308 95.1221 110.638 95.6807 111.603L98.3467 116.224L107.817 106.753C108.604 105.966 109.899 105.966 110.687 106.753C111.474 107.541 111.474 108.835 110.687 109.623L99.3369 120.972C99.21 121.099 99.083 121.201 98.9307 121.302C97.9658 121.861 96.7217 121.531 96.1631 120.566L92.1768 113.634Z" fill="white"/>
</g>
<defs>
<filter id="filter0_d_1111_53359" x="0.5" y="0.208496" width="212.558" height="212.558" filterUnits="userSpaceOnUse" color-interpolation-filters="sRGB">
<feFlood flood-opacity="0" result="BackgroundImageFix"/>
<feColorMatrix in="SourceAlpha" type="matrix" values="0 0 0 0 0 0 0 0 0 0 0 0 0 0 0 0 0 0 127 0" result="hardAlpha"/>
<feMorphology radius="2" operator="dilate" in="SourceAlpha" result="effect1_dropShadow_1111_53359"/>
<feOffset dx="4" dy="4"/>
<feGaussianBlur stdDeviation="8"/>
<feComposite in2="hardAlpha" operator="out"/>
<feColorMatrix type="matrix" values="0 0 0 0 0 0 0 0 0 0 0 0 0 0 0 0 0 0 0.16 0"/>
<feBlend mode="normal" in2="BackgroundImageFix" result="effect1_dropShadow_1111_53359"/>
<feBlend mode="normal" in="SourceGraphic" in2="effect1_dropShadow_1111_53359" result="shape"/>
</filter>
</defs>
</svg>
