<svg width="34" height="34" viewBox="0 0 34 34" fill="none" xmlns="http://www.w3.org/2000/svg">
<g clip-path="url(#clip0_1111_51230)">
<path d="M32.2038 1.27806C32.6019 1.56754 32.7647 1.9535 32.6923 2.43596L28.0608 30.2254C28.0005 30.5752 27.8075 30.8466 27.4818 31.0396C27.313 31.1361 27.126 31.1843 26.921 31.1843C26.7883 31.1843 26.6435 31.1542 26.4867 31.0939L16.9522 27.204L11.5608 33.1202C11.3437 33.3735 11.0602 33.5001 10.7104 33.5001C10.5416 33.5001 10.4029 33.476 10.2943 33.4277C10.0651 33.3433 9.88423 33.2016 9.75155 33.0026C9.61887 32.8036 9.55254 32.5834 9.55254 32.3422V24.1646L1.01306 20.6728C0.566792 20.5039 0.325564 20.1723 0.28938 19.6777C0.253196 19.2073 0.446178 18.8515 0.868328 18.6103L30.9736 1.24188C31.3957 0.98859 31.8058 1.00065 32.2038 1.27806ZM26.0164 28.3981L30.0147 4.46227L4.07063 19.4244L10.1496 21.9031L25.7631 10.3422L17.115 24.7616L26.0164 28.3981Z" fill="#476BC7"/>
</g>
<defs>
<clipPath id="clip0_1111_51230">
<rect width="32.4211" height="33" fill="white" transform="translate(0.78949 0.5)"/>
</clipPath>
</defs>
</svg>
