<svg width="67" height="63" viewBox="0 0 67 63" fill="none" xmlns="http://www.w3.org/2000/svg">
<rect width="60" height="60" rx="30" fill="#01CB77"/>
<path d="M36.7634 29.1194C35.7055 29.1194 34.7522 29.567 34.078 30.2877C33.9094 30.4679 33.7583 30.6655 33.6304 30.8748C33.2816 31.4386 33.084 32.0954 33.084 32.8046C33.084 34.8332 34.7348 36.4898 36.7692 36.4898C38.7978 36.4898 40.4544 34.839 40.4544 32.8046C40.4544 30.7702 38.792 29.1194 36.7634 29.1194ZM36.7983 32.4849C37.118 32.6011 38.1526 33.0603 38.0305 34.0252C37.9782 34.5367 37.5481 34.8971 37.054 35.0308V35.49C37.054 35.6527 36.9203 35.7864 36.7576 35.7864C36.5948 35.7864 36.4611 35.6527 36.4611 35.49V35.0657C35.9613 34.9901 35.4381 34.6181 35.4439 33.7637C35.4439 33.6009 35.5776 33.4672 35.7404 33.4672C35.9031 33.4672 36.0368 33.6009 36.0368 33.7695C36.031 34.3333 36.3449 34.467 36.6123 34.4844H36.7227C37.054 34.4612 37.4086 34.2519 37.4377 33.9671V33.9555C37.5074 33.4207 36.8099 33.1243 36.589 33.0429C35.6939 32.7174 35.3277 32.2291 35.4904 31.5897C35.6416 31.0027 36.0368 30.6772 36.4553 30.5667V30.1133C36.4553 29.9506 36.589 29.8169 36.7518 29.8169C36.9145 29.8169 37.0482 29.9506 37.0482 30.1133V30.5493C37.6702 30.6713 38.0887 31.2061 38.0596 31.8629C38.0538 32.0257 37.9143 32.1536 37.7515 32.1478C37.5888 32.1419 37.4609 32.0024 37.4667 31.8397C37.4842 31.3747 37.1703 31.1654 36.8913 31.1247C36.8448 31.1189 36.7983 31.1131 36.746 31.1189C36.4786 31.1305 36.1763 31.2991 36.0601 31.7409C36.0136 31.9676 36.0659 32.2175 36.7983 32.4849ZM40.6811 40.204V41.6281C40.6811 41.8315 40.5125 41.9943 40.3149 41.9943H33.2119C33.0085 41.9943 32.8457 41.8257 32.8457 41.6281V40.204C32.8457 40.0006 33.0143 39.8378 33.2119 39.8378H40.3149C40.5183 39.832 40.6811 40.0006 40.6811 40.204ZM40.6811 37.4488V38.8729C40.6811 39.0764 40.5125 39.2391 40.3149 39.2391H33.2119C33.0085 39.2391 32.8457 39.0706 32.8457 38.8729V37.4488C32.8457 37.2454 33.0143 37.0826 33.2119 37.0826H40.3149C40.5183 37.0768 40.6811 37.2454 40.6811 37.4488Z" fill="white"/>
<path d="M34.5896 36.4838H33.212C32.683 36.4838 32.2471 36.9139 32.2471 37.4487V38.8728C32.2471 39.1285 32.3517 39.3669 32.5145 39.5412C32.3459 39.7156 32.2471 39.9481 32.2471 40.2097V41.6338C32.2471 41.7617 32.2762 41.8895 32.3227 42H29.1897V35.1004L31.5554 31.0025L31.5612 30.9967H32.8865C32.6307 31.5489 32.4854 32.1592 32.4854 32.8044C32.4854 34.368 33.3282 35.7398 34.5896 36.4838ZM31.0904 30.6131L28.8874 34.4262L26.667 30.584C26.76 30.2527 26.7716 29.9272 26.7426 29.6191C27.3296 30.1248 27.9981 30.398 28.6782 30.398C29.521 30.398 30.3347 29.9795 31.0148 29.2239C31.0206 29.3459 31.0323 29.468 31.0439 29.6017C31.0729 29.8749 31.102 30.183 31.0904 30.6131Z" fill="white"/>
<path d="M30.8405 21.5222C31.3055 22.8591 32.1484 25.7247 31.4567 27.3464C31.3753 27.5383 31.3055 27.7068 31.2532 27.8638C30.5789 29.096 29.6489 29.7994 28.6899 29.7994C27.7889 29.7994 26.9112 29.1774 26.2486 28.0788C26.2021 27.9858 26.1497 27.9045 26.1091 27.8347C26.1032 27.8289 26.0974 27.8173 26.0916 27.8115C26.0858 27.794 26.0742 27.7824 26.0626 27.7708C26.0277 27.7126 25.9928 27.6603 25.9696 27.6196L25.9637 27.608C25.7545 27.2767 25.5917 26.771 25.5045 26.1897C25.365 25.2481 25.4639 23.2079 25.6673 22.7836C25.9579 22.1616 26.917 22.2139 27.9342 22.2662C28.9863 22.3185 30.2476 22.3825 30.8405 21.5222Z" fill="white"/>
<path d="M33.5899 29.933C33.4562 30.0784 33.3341 30.2411 33.2179 30.4039C33.1249 30.398 33.0319 30.398 32.9389 30.398H31.6891C31.6891 30.0493 31.6659 29.7819 31.6426 29.5552C31.602 29.0611 31.5787 28.7473 31.7938 28.1137C31.7996 28.1079 31.7996 28.0963 31.8054 28.0904C31.8228 28.0556 31.8345 28.0207 31.8403 27.9858C31.8868 27.8638 31.9391 27.7301 32.003 27.5847C33.026 25.1958 31.1951 20.7608 31.1195 20.5689C31.0672 20.4469 30.9393 20.3713 30.8114 20.3887C30.6777 20.4062 30.5731 20.505 30.5557 20.6387C30.3871 21.714 29.4629 21.7431 27.9633 21.6675C26.7949 21.6036 25.5917 21.5455 25.1325 22.5278C24.8419 23.1497 24.7838 25.3469 24.9233 26.2769C24.993 26.7477 25.1442 27.4104 25.4697 27.9277L25.4755 27.9393C25.5103 27.9916 25.551 28.0614 25.5975 28.1369C25.644 28.2183 25.6847 28.2939 25.7312 28.3694C25.9986 28.8693 26.3067 29.6366 26.1149 30.398H24.8535C24.4176 30.398 23.9991 30.4504 23.5922 30.5434C22.8598 27.9219 23.3713 22.9172 23.5399 21.2316C23.8305 18.3078 26.2544 17 28.5271 17C30.7998 17 33.2237 18.3078 33.5201 21.2316C33.8107 24.0914 33.9793 27.8579 33.5899 29.933ZM28.5968 35.1004V41.9942H23.691V35.7805C23.691 35.6178 23.5573 35.4841 23.3946 35.4841C23.2318 35.4841 23.0981 35.6178 23.0981 35.7805V41.9942H20V35.8386C20 33.6589 21.4532 31.8047 23.4411 31.2002C23.4527 31.2002 23.4701 31.1944 23.4817 31.1886C23.4876 31.1886 23.4934 31.1827 23.4992 31.1827C23.9293 31.0607 24.3769 30.9909 24.8477 30.9909H26.2253L28.5968 35.1004Z" fill="white"/>
<circle cx="36" cy="32" r="30" stroke="#2F3045" stroke-linecap="round" stroke-linejoin="round" stroke-dasharray="6 6"/>
</svg>
