<svg width="67" height="63" viewBox="0 0 67 63" fill="none" xmlns="http://www.w3.org/2000/svg">
<rect width="60" height="60" rx="30" fill="#FF852C"/>
<path d="M22.0179 33.9643C21.2232 33.9643 20.4464 34.1999 19.7857 34.6414C19.1249 35.0829 18.6099 35.7104 18.3058 36.4446C18.0017 37.1787 17.9222 37.9866 18.0772 38.766C18.2322 39.5454 18.6149 40.2613 19.1768 40.8232C19.7387 41.3851 20.4546 41.7678 21.234 41.9228C22.0134 42.0778 22.8213 41.9983 23.5554 41.6942C24.2896 41.3901 24.9171 40.8751 25.3586 40.2143C25.8001 39.5536 26.0357 38.7768 26.0357 37.9821C26.0345 36.9169 25.6108 35.8956 24.8576 35.1424C24.1044 34.3892 23.0831 33.9655 22.0179 33.9643ZM22.4643 40.1321V40.2143C22.4643 40.3327 22.4172 40.4462 22.3335 40.53C22.2498 40.6137 22.1363 40.6607 22.0179 40.6607C21.8995 40.6607 21.7859 40.6137 21.7022 40.53C21.6185 40.4462 21.5714 40.3327 21.5714 40.2143V40.125C21.2721 40.0222 21.019 39.8166 20.8571 39.5446C20.8021 39.4424 20.7891 39.3228 20.8208 39.2112C20.8525 39.0995 20.9264 39.0046 21.0269 38.9465C21.1274 38.8885 21.2466 38.8718 21.3592 38.9001C21.4717 38.9285 21.5688 38.9995 21.6299 39.0982C21.6691 39.166 21.7254 39.2224 21.7932 39.2615C21.861 39.3007 21.9379 39.3214 22.0162 39.3214C22.0945 39.3215 22.1715 39.3009 22.2393 39.2619C22.3072 39.2228 22.3636 39.1665 22.4028 39.0988C22.4421 39.031 22.4628 38.9541 22.463 38.8758C22.4631 38.7975 22.4426 38.7206 22.4036 38.6526C22.3646 38.5847 22.3085 38.5283 22.2407 38.489C22.173 38.4496 22.0962 38.4288 22.0179 38.4286C21.7023 38.4292 21.3967 38.3181 21.1552 38.115C20.9138 37.9118 20.752 37.6298 20.6985 37.3188C20.645 37.0078 20.7033 36.688 20.8631 36.4159C21.0229 36.1438 21.2738 35.937 21.5714 35.8321V35.75C21.5714 35.6316 21.6185 35.5181 21.7022 35.4343C21.7859 35.3506 21.8995 35.3036 22.0179 35.3036C22.1363 35.3036 22.2498 35.3506 22.3335 35.4343C22.4172 35.5181 22.4643 35.6316 22.4643 35.75V35.8393C22.7634 35.942 23.0165 36.1473 23.1786 36.4196C23.2336 36.5219 23.2466 36.6415 23.2149 36.7531C23.1832 36.8648 23.1093 36.9597 23.0088 37.0178C22.9083 37.0758 22.7891 37.0925 22.6765 37.0641C22.564 37.0358 22.4669 36.9648 22.4058 36.8661C22.3666 36.7983 22.3103 36.7419 22.2425 36.7028C22.1747 36.6636 22.0978 36.6429 22.0195 36.6429C21.9412 36.6428 21.8643 36.6633 21.7964 36.7024C21.7285 36.7415 21.6722 36.7977 21.6329 36.8655C21.5936 36.9333 21.5729 37.0102 21.5728 37.0885C21.5726 37.1668 21.5931 37.2437 21.6321 37.3116C21.6711 37.3795 21.7273 37.436 21.795 37.4753C21.8627 37.5147 21.9395 37.5355 22.0179 37.5357C22.3334 37.5351 22.639 37.6462 22.8805 37.8493C23.1219 38.0524 23.2838 38.3345 23.3372 38.6455C23.3907 38.9564 23.3324 39.2763 23.1726 39.5484C23.0128 39.8205 22.7619 40.0273 22.4643 40.1321ZM26.9286 22.3572H34.0714C34.1898 22.3572 34.3034 22.3101 34.3871 22.2264C34.4708 22.1427 34.5178 22.0291 34.5178 21.9107C34.5178 21.7923 34.4708 21.6788 34.3871 21.5951C34.3034 21.5113 34.1898 21.4643 34.0714 21.4643H26.9286C26.8102 21.4643 26.6966 21.5113 26.6129 21.5951C26.5292 21.6788 26.4821 21.7923 26.4821 21.9107C26.4821 22.0291 26.5292 22.1427 26.6129 22.2264C26.6966 22.3101 26.8102 22.3572 26.9286 22.3572ZM32.9553 28.1607C32.5391 28.1632 32.1305 28.2732 31.7692 28.4799C31.4079 28.6866 31.106 28.9831 30.8928 29.3406C30.8143 29.4835 30.6638 29.5728 30.5004 29.5732C30.4203 29.5731 30.3412 29.5514 30.2723 29.5104C30.2034 29.4694 30.1468 29.4106 30.1085 29.3402C29.895 28.9826 29.5929 28.6862 29.2314 28.4795C28.8698 28.2729 28.4611 28.1631 28.0446 28.1607C26.8995 28.1607 26.0357 29.1277 26.0357 30.4098C26.0357 31.9147 27.3455 33.0326 29.5178 34.8853C29.7402 35.075 29.9701 35.2719 30.208 35.4763C30.3777 35.6205 30.6268 35.6205 30.7964 35.4763C31.0344 35.2719 31.2647 35.0746 31.4866 34.8853C33.6567 33.0326 34.9687 31.9147 34.9687 30.4098C34.9643 29.1277 34.1004 28.1607 32.9553 28.1607ZM31.8393 32.625H30.9464V33.5179C30.9464 33.6363 30.8994 33.7498 30.8157 33.8335C30.7319 33.9173 30.6184 33.9643 30.5 33.9643C30.3816 33.9643 30.268 33.9173 30.1843 33.8335C30.1006 33.7498 30.0536 33.6363 30.0536 33.5179V32.625H29.1607C29.0423 32.625 28.9288 32.578 28.845 32.4943C28.7613 32.4105 28.7143 32.297 28.7143 32.1786C28.7143 32.0602 28.7613 31.9466 28.845 31.8629C28.9288 31.7792 29.0423 31.7321 29.1607 31.7321H30.0536V30.8393C30.0536 30.7209 30.1006 30.6073 30.1843 30.5236C30.268 30.4399 30.3816 30.3929 30.5 30.3929C30.6184 30.3929 30.7319 30.4399 30.8157 30.5236C30.8994 30.6073 30.9464 30.7209 30.9464 30.8393V31.7321H31.8393C31.9577 31.7321 32.0712 31.7792 32.155 31.8629C32.2387 31.9466 32.2857 32.0602 32.2857 32.1786C32.2857 32.297 32.2387 32.4105 32.155 32.4943C32.0712 32.578 31.9577 32.625 31.8393 32.625ZM28.4183 20.5714H32.5786L34.4768 17.4081C34.5018 17.3672 34.5155 17.3205 34.5164 17.2726C34.5172 17.2247 34.5052 17.1775 34.4816 17.1358C34.458 17.0941 34.4236 17.0595 34.3821 17.0357C34.3406 17.0118 34.2934 16.9995 34.2455 17H26.75C26.7021 16.9995 26.6549 17.0118 26.6134 17.0357C26.5719 17.0595 26.5376 17.0941 26.5139 17.1358C26.4903 17.1775 26.4783 17.2247 26.4792 17.2726C26.48 17.3205 26.4937 17.3672 26.5187 17.4081L28.4183 20.5714Z" fill="white"/>
<path d="M38.9823 33.0714C39.2381 33.0732 39.4934 33.0951 39.7461 33.137C39.0948 29.1969 35.976 25.2589 33.0416 23.25H27.9586C25.0242 25.2589 21.9055 29.1969 21.2542 33.137C22.2297 32.9809 23.2296 33.1233 24.1228 33.5455C25.016 33.9677 25.7607 34.65 26.2592 35.503C26.7578 36.3559 26.9869 37.3396 26.9165 38.325C26.8461 39.3104 26.4796 40.2516 25.8649 41.025C27.3256 41.668 28.9041 42 30.5001 42C32.0961 42 33.6746 41.668 35.1354 41.025C34.5614 40.3024 34.2029 39.4325 34.1013 38.5152C33.9996 37.598 34.1588 36.6707 34.5606 35.8399C34.9625 35.0091 35.5906 34.3086 36.3727 33.8189C37.1549 33.3291 38.0594 33.0701 38.9823 33.0714ZM31.0443 36.4406C30.7314 36.7085 30.2698 36.7085 29.9568 36.4406C29.5997 36.1312 29.2599 35.8402 28.9358 35.5638C26.6519 33.6147 25.143 32.3263 25.143 30.4098C25.143 28.6183 26.3903 27.2679 28.0448 27.2679C28.5096 27.2659 28.9695 27.364 29.3932 27.5554C29.8168 27.7468 30.1943 28.0271 30.5001 28.3772C30.8059 28.0271 31.1835 27.7468 31.6071 27.5554C32.0307 27.364 32.4906 27.2659 32.9555 27.2679C34.6099 27.2679 35.8573 28.6183 35.8573 30.4098C35.8573 32.3263 34.3483 33.6147 32.0626 35.5643C31.7399 35.8411 31.4001 36.133 31.0443 36.4406Z" fill="white"/>
<path d="M38.9822 33.9644C38.1876 33.9644 37.4107 34.2 36.75 34.6415C36.0893 35.083 35.5743 35.7105 35.2702 36.4446C34.9661 37.1788 34.8865 37.9867 35.0416 38.7661C35.1966 39.5454 35.5793 40.2614 36.1412 40.8233C36.7031 41.3852 37.419 41.7678 38.1984 41.9229C38.9778 42.0779 39.7856 41.9983 40.5198 41.6942C41.2539 41.3901 41.8814 40.8751 42.3229 40.2144C42.7644 39.5537 43.0001 38.7769 43.0001 37.9822C42.9989 36.917 42.5752 35.8957 41.822 35.1425C41.0687 34.3892 40.0475 33.9655 38.9822 33.9644ZM39.4286 40.1322V40.2144C39.4286 40.3328 39.3816 40.4463 39.2979 40.53C39.2142 40.6137 39.1006 40.6608 38.9822 40.6608C38.8638 40.6608 38.7503 40.6137 38.6665 40.53C38.5828 40.4463 38.5358 40.3328 38.5358 40.2144V40.1251C38.2365 40.0223 37.9834 39.8166 37.8215 39.5447C37.7665 39.4425 37.7535 39.3229 37.7852 39.2112C37.8169 39.0996 37.8908 39.0047 37.9913 38.9466C38.0918 38.8885 38.211 38.8719 38.3235 38.9002C38.4361 38.9285 38.5332 38.9996 38.5943 39.0983C38.6334 39.1661 38.6897 39.2224 38.7575 39.2616C38.8253 39.3008 38.9022 39.3214 38.9806 39.3215C39.0589 39.3216 39.1358 39.301 39.2037 39.2619C39.2715 39.2229 39.3279 39.1666 39.3672 39.0989C39.4064 39.0311 39.4272 38.9542 39.4273 38.8759C39.4275 38.7976 39.407 38.7206 39.368 38.6527C39.329 38.5848 39.2728 38.5284 39.2051 38.489C39.1374 38.4497 39.0605 38.4289 38.9822 38.4286C38.6667 38.4292 38.3611 38.3181 38.1196 38.115C37.8781 37.9119 37.7163 37.6299 37.6628 37.3189C37.6094 37.0079 37.6677 36.688 37.8275 36.4159C37.9872 36.1438 38.2382 35.937 38.5358 35.8322V35.7501C38.5358 35.6317 38.5828 35.5181 38.6665 35.4344C38.7503 35.3507 38.8638 35.3036 38.9822 35.3036C39.1006 35.3036 39.2142 35.3507 39.2979 35.4344C39.3816 35.5181 39.4286 35.6317 39.4286 35.7501V35.8394C39.7277 35.942 39.9809 36.1474 40.1429 36.4197C40.1979 36.5219 40.211 36.6415 40.1793 36.7532C40.1476 36.8648 40.0736 36.9598 39.9731 37.0178C39.8726 37.0759 39.7535 37.0925 39.6409 37.0642C39.5283 37.0359 39.4312 36.9648 39.3702 36.8661C39.331 36.7983 39.2747 36.742 39.2069 36.7028C39.1391 36.6636 39.0622 36.643 38.9839 36.6429C38.9056 36.6429 38.8286 36.6634 38.7608 36.7025C38.6929 36.7416 38.6365 36.7978 38.5973 36.8656C38.558 36.9333 38.5373 37.0102 38.5371 37.0885C38.537 37.1668 38.5574 37.2438 38.5964 37.3117C38.6354 37.3796 38.6916 37.4361 38.7593 37.4754C38.827 37.5147 38.9039 37.5355 38.9822 37.5358C39.2978 37.5352 39.6033 37.6463 39.8448 37.8494C40.0863 38.0525 40.2481 38.3345 40.3016 38.6455C40.3551 38.9565 40.2967 39.2764 40.137 39.5485C39.9772 39.8206 39.7263 40.0274 39.4286 40.1322Z" fill="white"/>
<circle cx="36" cy="32" r="30" stroke="#2F3045" stroke-linecap="round" stroke-linejoin="round" stroke-dasharray="6 6"/>
</svg>
